<?xml version="1.0" encoding="UTF-8"?>
<svg id="Layer_1" data-name="Layer 1" xmlns="http://www.w3.org/2000/svg" viewBox="0 0 53 66.49">
  <defs>
    <style>
      .cls-1 {
        fill: #ac7d72;
      }

      .cls-1, .cls-2, .cls-3, .cls-4, .cls-5, .cls-6, .cls-7, .cls-8, .cls-9, .cls-10, .cls-11, .cls-12, .cls-13, .cls-14, .cls-15, .cls-16, .cls-17, .cls-18, .cls-19, .cls-20, .cls-21, .cls-22, .cls-23, .cls-24, .cls-25, .cls-26, .cls-27, .cls-28, .cls-29, .cls-30, .cls-31, .cls-32, .cls-33, .cls-34, .cls-35, .cls-36, .cls-37, .cls-38, .cls-39, .cls-40, .cls-41, .cls-42, .cls-43, .cls-44, .cls-45, .cls-46, .cls-47, .cls-48, .cls-49, .cls-50, .cls-51, .cls-52, .cls-53, .cls-54, .cls-55, .cls-56, .cls-57, .cls-58, .cls-59, .cls-60, .cls-61, .cls-62, .cls-63, .cls-64, .cls-65, .cls-66, .cls-67, .cls-68, .cls-69, .cls-70, .cls-71, .cls-72, .cls-73, .cls-74, .cls-75, .cls-76, .cls-77, .cls-78, .cls-79, .cls-80, .cls-81, .cls-82, .cls-83, .cls-84, .cls-85, .cls-86, .cls-87, .cls-88, .cls-89, .cls-90, .cls-91, .cls-92, .cls-93, .cls-94, .cls-95, .cls-96, .cls-97, .cls-98, .cls-99, .cls-100, .cls-101, .cls-102, .cls-103, .cls-104, .cls-105, .cls-106, .cls-107, .cls-108, .cls-109, .cls-110, .cls-111, .cls-112, .cls-113, .cls-114, .cls-115, .cls-116, .cls-117, .cls-118, .cls-119, .cls-120, .cls-121, .cls-122, .cls-123, .cls-124, .cls-125, .cls-126, .cls-127, .cls-128, .cls-129, .cls-130, .cls-131, .cls-132, .cls-133, .cls-134, .cls-135, .cls-136, .cls-137, .cls-138, .cls-139, .cls-140, .cls-141, .cls-142, .cls-143, .cls-144, .cls-145, .cls-146, .cls-147, .cls-148, .cls-149, .cls-150, .cls-151, .cls-152, .cls-153, .cls-154, .cls-155, .cls-156, .cls-157, .cls-158, .cls-159, .cls-160, .cls-161, .cls-162, .cls-163, .cls-164, .cls-165, .cls-166, .cls-167, .cls-168, .cls-169, .cls-170, .cls-171, .cls-172, .cls-173, .cls-174, .cls-175, .cls-176, .cls-177, .cls-178, .cls-179, .cls-180, .cls-181, .cls-182, .cls-183, .cls-184, .cls-185, .cls-186, .cls-187, .cls-188, .cls-189, .cls-190, .cls-191, .cls-192, .cls-193, .cls-194, .cls-195, .cls-196, .cls-197, .cls-198, .cls-199, .cls-200, .cls-201, .cls-202, .cls-203, .cls-204, .cls-205, .cls-206, .cls-207, .cls-208, .cls-209, .cls-210, .cls-211, .cls-212, .cls-213, .cls-214, .cls-215, .cls-216, .cls-217, .cls-218, .cls-219, .cls-220, .cls-221, .cls-222, .cls-223, .cls-224, .cls-225, .cls-226, .cls-227, .cls-228, .cls-229, .cls-230, .cls-231, .cls-232, .cls-233, .cls-234, .cls-235, .cls-236, .cls-237, .cls-238, .cls-239, .cls-240, .cls-241, .cls-242, .cls-243, .cls-244, .cls-245, .cls-246, .cls-247, .cls-248, .cls-249, .cls-250, .cls-251, .cls-252, .cls-253, .cls-254, .cls-255, .cls-256, .cls-257, .cls-258, .cls-259, .cls-260, .cls-261, .cls-262, .cls-263, .cls-264, .cls-265, .cls-266, .cls-267, .cls-268, .cls-269, .cls-270, .cls-271, .cls-272, .cls-273, .cls-274, .cls-275, .cls-276, .cls-277, .cls-278, .cls-279, .cls-280, .cls-281, .cls-282, .cls-283, .cls-284, .cls-285, .cls-286, .cls-287, .cls-288, .cls-289, .cls-290, .cls-291, .cls-292, .cls-293, .cls-294, .cls-295, .cls-296, .cls-297, .cls-298, .cls-299, .cls-300, .cls-301, .cls-302, .cls-303, .cls-304, .cls-305, .cls-306, .cls-307, .cls-308, .cls-309, .cls-310, .cls-311, .cls-312, .cls-313, .cls-314, .cls-315, .cls-316, .cls-317, .cls-318, .cls-319, .cls-320, .cls-321, .cls-322, .cls-323, .cls-324, .cls-325, .cls-326, .cls-327, .cls-328, .cls-329, .cls-330, .cls-331, .cls-332, .cls-333, .cls-334, .cls-335, .cls-336, .cls-337, .cls-338, .cls-339, .cls-340, .cls-341, .cls-342, .cls-343, .cls-344, .cls-345, .cls-346, .cls-347, .cls-348, .cls-349, .cls-350, .cls-351, .cls-352, .cls-353, .cls-354, .cls-355, .cls-356, .cls-357, .cls-358, .cls-359, .cls-360, .cls-361, .cls-362, .cls-363, .cls-364, .cls-365, .cls-366, .cls-367, .cls-368, .cls-369, .cls-370, .cls-371, .cls-372, .cls-373, .cls-374, .cls-375, .cls-376, .cls-377, .cls-378, .cls-379, .cls-380, .cls-381, .cls-382, .cls-383, .cls-384, .cls-385, .cls-386, .cls-387, .cls-388, .cls-389, .cls-390, .cls-391, .cls-392, .cls-393, .cls-394, .cls-395, .cls-396, .cls-397, .cls-398, .cls-399, .cls-400, .cls-401, .cls-402, .cls-403, .cls-404, .cls-405, .cls-406, .cls-407, .cls-408, .cls-409, .cls-410, .cls-411, .cls-412, .cls-413, .cls-414, .cls-415 {
        stroke-width: 0px;
      }

      .cls-2 {
        fill: #c76c64;
      }

      .cls-3 {
        fill: #6a5241;
      }

      .cls-4 {
        fill: #b8805e;
      }

      .cls-5 {
        fill: #a37857;
      }

      .cls-6 {
        fill: #281c15;
      }

      .cls-7 {
        fill: #937e7c;
      }

      .cls-8 {
        fill: #d99b84;
      }

      .cls-9 {
        fill: #0c090a;
      }

      .cls-10 {
        fill: #a3775b;
      }

      .cls-11 {
        fill: #3a322a;
      }

      .cls-12 {
        fill: #9d7157;
      }

      .cls-13 {
        fill: #63473b;
      }

      .cls-14 {
        fill: #221110;
      }

      .cls-15 {
        fill: #d29e7e;
      }

      .cls-16 {
        fill: #b87c64;
      }

      .cls-17 {
        fill: #f5ecd0;
      }

      .cls-18 {
        fill: #f5cfb0;
      }

      .cls-19 {
        fill: #815d58;
      }

      .cls-20 {
        fill: #321712;
      }

      .cls-21 {
        fill: #ddae8c;
      }

      .cls-22 {
        fill: #916453;
      }

      .cls-23 {
        fill: #a57155;
      }

      .cls-24 {
        fill: #d99280;
      }

      .cls-25 {
        fill: #6a645e;
      }

      .cls-26 {
        fill: #5f5858;
      }

      .cls-27 {
        fill: #dfbd97;
      }

      .cls-28 {
        fill: #59221b;
      }

      .cls-29 {
        fill: #c89375;
      }

      .cls-30 {
        fill: #a77558;
      }

      .cls-31 {
        fill: #975252;
      }

      .cls-32 {
        fill: #261a15;
      }

      .cls-33 {
        fill: #db8985;
      }

      .cls-34 {
        fill: #a35c48;
      }

      .cls-35 {
        fill: #513226;
      }

      .cls-36 {
        fill: #351d11;
      }

      .cls-37 {
        fill: #30140d;
      }

      .cls-38 {
        fill: #e2d3bb;
      }

      .cls-39 {
        fill: #966a53;
      }

      .cls-40 {
        fill: #c86364;
      }

      .cls-41 {
        fill: #a95b52;
      }

      .cls-42 {
        fill: #b98c84;
      }

      .cls-43 {
        fill: #948695;
      }

      .cls-44 {
        fill: #d98e7b;
      }

      .cls-45 {
        fill: #b35f5b;
      }

      .cls-46 {
        fill: #7c553e;
      }

      .cls-47 {
        fill: #b28165;
      }

      .cls-48 {
        fill: #4a2c21;
      }

      .cls-49 {
        fill: #160f0d;
      }

      .cls-50 {
        fill: #dfa593;
      }

      .cls-51 {
        fill: #aa6b55;
      }

      .cls-52 {
        fill: #211913;
      }

      .cls-53 {
        fill: #d78575;
      }

      .cls-54 {
        fill: #957059;
      }

      .cls-55 {
        fill: #c69672;
      }

      .cls-56 {
        fill: #cea181;
      }

      .cls-57 {
        fill: #eba5a0;
      }

      .cls-58 {
        fill: #151014;
      }

      .cls-59 {
        fill: #a79590;
      }

      .cls-60 {
        fill: #181112;
      }

      .cls-61 {
        fill: #d59177;
      }

      .cls-62 {
        fill: #221712;
      }

      .cls-63 {
        fill: #5a3628;
      }

      .cls-64 {
        fill: #8b6758;
      }

      .cls-65 {
        fill: #aa5a52;
      }

      .cls-66 {
        fill: #de8f87;
      }

      .cls-67 {
        fill: #3b2216;
      }

      .cls-68 {
        fill: #c38f76;
      }

      .cls-69 {
        fill: #a07b73;
      }

      .cls-70 {
        fill: #b1765c;
      }

      .cls-71 {
        fill: #533b31;
      }

      .cls-72 {
        fill: #bc5c3e;
      }

      .cls-73 {
        fill: #832f28;
      }

      .cls-74 {
        fill: #9f6e55;
      }

      .cls-75 {
        fill: #31190f;
      }

      .cls-76 {
        fill: #936c55;
      }

      .cls-77 {
        fill: #493d36;
      }

      .cls-78 {
        fill: #43332c;
      }

      .cls-79 {
        fill: #b0775f;
      }

      .cls-80 {
        fill: #461f13;
      }

      .cls-81 {
        fill: #d2a07f;
      }

      .cls-82 {
        fill: #dcb2a5;
      }

      .cls-83 {
        fill: #cec0c4;
      }

      .cls-84 {
        fill: #dbba9a;
      }

      .cls-85 {
        fill: #d4bb96;
      }

      .cls-86 {
        fill: #c18c6f;
      }

      .cls-87 {
        fill: #b3846c;
      }

      .cls-88 {
        fill: #b6a6bd;
      }

      .cls-89 {
        fill: #d09388;
      }

      .cls-90 {
        fill: #eca49a;
      }

      .cls-91 {
        fill: #4e3b36;
      }

      .cls-92 {
        fill: #5c3a25;
      }

      .cls-93 {
        fill: #1f1511;
      }

      .cls-94 {
        fill: #724b34;
      }

      .cls-95 {
        fill: #872623;
      }

      .cls-96 {
        fill: #422615;
      }

      .cls-97 {
        fill: #975f46;
      }

      .cls-98 {
        fill: #a05f4c;
      }

      .cls-99 {
        fill: #e1ae99;
      }

      .cls-100 {
        fill: #ce6764;
      }

      .cls-101 {
        fill: #492a1d;
      }

      .cls-102 {
        fill: #b1715e;
      }

      .cls-103 {
        fill: #5d4d40;
      }

      .cls-104 {
        fill: #dd9f85;
      }

      .cls-105 {
        fill: #f7f2df;
      }

      .cls-106 {
        fill: #c78f6a;
      }

      .cls-107 {
        fill: #d9c29b;
      }

      .cls-108 {
        fill: #352c28;
      }

      .cls-109 {
        fill: #e3c0a0;
      }

      .cls-110 {
        fill: #9d5542;
      }

      .cls-111 {
        fill: #3b1215;
      }

      .cls-112 {
        fill: #ce9674;
      }

      .cls-113 {
        fill: #daa786;
      }

      .cls-114 {
        fill: #7d5b3e;
      }

      .cls-115 {
        fill: #281910;
      }

      .cls-116 {
        fill: #5b4c48;
      }

      .cls-117 {
        fill: #9d6c53;
      }

      .cls-118 {
        fill: #d37069;
      }

      .cls-119 {
        fill: #472b22;
      }

      .cls-120 {
        fill: #c88674;
      }

      .cls-121 {
        fill: #382a25;
      }

      .cls-122 {
        fill: #cbc;
      }

      .cls-123 {
        fill: #462e21;
      }

      .cls-124 {
        fill: #81664b;
      }

      .cls-125 {
        fill: #37251d;
      }

      .cls-126 {
        fill: #d97b77;
      }

      .cls-127 {
        fill: #daab92;
      }

      .cls-128 {
        fill: #2f1c15;
      }

      .cls-129 {
        fill: #c18265;
      }

      .cls-130 {
        fill: #2a1e14;
      }

      .cls-131 {
        fill: #a4725d;
      }

      .cls-132 {
        fill: #eee7da;
      }

      .cls-133 {
        fill: #bb8a71;
      }

      .cls-134 {
        fill: #34241b;
      }

      .cls-135 {
        fill: #b75f56;
      }

      .cls-136 {
        fill: #9b6e55;
      }

      .cls-137 {
        fill: #191411;
      }

      .cls-138 {
        fill: #d1c0ac;
      }

      .cls-139 {
        fill: #40281c;
      }

      .cls-140 {
        fill: #633a25;
      }

      .cls-141 {
        fill: #cf857c;
      }

      .cls-142 {
        fill: #593d36;
      }

      .cls-143 {
        fill: #de7a79;
      }

      .cls-144 {
        fill: #e4a194;
      }

      .cls-145 {
        fill: #ab7659;
      }

      .cls-146 {
        fill: #6d2424;
      }

      .cls-147 {
        fill: #d1a985;
      }

      .cls-148 {
        fill: #78513e;
      }

      .cls-149 {
        fill: #edaa9e;
      }

      .cls-150 {
        fill: #e49e9f;
      }

      .cls-151 {
        fill: #7e4d2f;
      }

      .cls-152 {
        fill: #e4b19f;
      }

      .cls-153 {
        fill: #562c26;
      }

      .cls-154 {
        fill: #6e5d48;
      }

      .cls-155 {
        fill: #b08562;
      }

      .cls-156 {
        fill: #c89b87;
      }

      .cls-157 {
        fill: #dccdb8;
      }

      .cls-158 {
        fill: #653025;
      }

      .cls-159 {
        fill: #63342a;
      }

      .cls-160 {
        fill: #c6a589;
      }

      .cls-161 {
        fill: #da726f;
      }

      .cls-162 {
        fill: #8a2e24;
      }

      .cls-163 {
        fill: #b48870;
      }

      .cls-164 {
        fill: #cb9077;
      }

      .cls-165 {
        fill: #0b080d;
      }

      .cls-166 {
        fill: #ddb5a6;
      }

      .cls-167 {
        fill: #a54e45;
      }

      .cls-168 {
        fill: #6b4737;
      }

      .cls-169 {
        fill: #8d615b;
      }

      .cls-170 {
        fill: #311a12;
      }

      .cls-171 {
        fill: #635c53;
      }

      .cls-172 {
        fill: #f7d8c8;
      }

      .cls-173 {
        fill: #d28b7f;
      }

      .cls-174 {
        fill: #85644c;
      }

      .cls-175 {
        fill: #bea287;
      }

      .cls-176 {
        fill: #23130d;
      }

      .cls-177 {
        fill: #cf7c6c;
      }

      .cls-178 {
        fill: #2f1e13;
      }

      .cls-179 {
        fill: #110d0c;
      }

      .cls-180 {
        fill: #1e1717;
      }

      .cls-181 {
        fill: #bb866f;
      }

      .cls-182 {
        fill: #3f2a1f;
      }

      .cls-183 {
        fill: #a24c3d;
      }

      .cls-184 {
        fill: #282322;
      }

      .cls-185 {
        fill: #d19e81;
      }

      .cls-186 {
        fill: #ddb199;
      }

      .cls-187 {
        fill: #120e10;
      }

      .cls-188 {
        fill: #746863;
      }

      .cls-189 {
        fill: #201814;
      }

      .cls-190 {
        fill: #64251a;
      }

      .cls-191 {
        fill: #e1cda8;
      }

      .cls-192 {
        fill: #5c494a;
      }

      .cls-193 {
        fill: #a54d3e;
      }

      .cls-194 {
        fill: #56382e;
      }

      .cls-195 {
        fill: #4e3b34;
      }

      .cls-196 {
        fill: #f0a99f;
      }

      .cls-197 {
        fill: #cfc8cd;
      }

      .cls-198 {
        fill: #574134;
      }

      .cls-199 {
        fill: #e6c7a4;
      }

      .cls-200 {
        fill: #d1ad8e;
      }

      .cls-201 {
        fill: #691b12;
      }

      .cls-202 {
        fill: #1d1714;
      }

      .cls-203 {
        fill: #d19483;
      }

      .cls-204 {
        fill: #773d23;
      }

      .cls-205 {
        fill: #a2694b;
      }

      .cls-206 {
        fill: #73321e;
      }

      .cls-207 {
        fill: #d99e8e;
      }

      .cls-208 {
        fill: #39302c;
      }

      .cls-209 {
        fill: #ac8f89;
      }

      .cls-210 {
        fill: #ae8566;
      }

      .cls-211 {
        fill: #d7a188;
      }

      .cls-212 {
        fill: #b27153;
      }

      .cls-213 {
        fill: #916f45;
      }

      .cls-214 {
        fill: #241716;
      }

      .cls-215 {
        fill: #433834;
      }

      .cls-216 {
        fill: #9e6147;
      }

      .cls-217 {
        fill: #3c3733;
      }

      .cls-218 {
        fill: #ab7057;
      }

      .cls-219 {
        fill: #d08176;
      }

      .cls-220 {
        fill: #dc9d87;
      }

      .cls-221 {
        fill: #392d27;
      }

      .cls-222 {
        fill: #dca893;
      }

      .cls-223 {
        fill: #6d3422;
      }

      .cls-224 {
        fill: #d08a70;
      }

      .cls-225 {
        fill: #c7a089;
      }

      .cls-226 {
        fill: #d38a7f;
      }

      .cls-227 {
        fill: #e4ad84;
      }

      .cls-228 {
        fill: #b1625a;
      }

      .cls-229 {
        fill: #ce7e6e;
      }

      .cls-230 {
        fill: #221411;
      }

      .cls-231 {
        fill: #927b73;
      }

      .cls-232 {
        fill: #c9c7b7;
      }

      .cls-233 {
        fill: #372925;
      }

      .cls-234 {
        fill: #424041;
      }

      .cls-235 {
        fill: #c8a47b;
      }

      .cls-236 {
        fill: #1b1613;
      }

      .cls-237 {
        fill: #e3ccb3;
      }

      .cls-238 {
        fill: #86675f;
      }

      .cls-239 {
        fill: #d67875;
      }

      .cls-240 {
        fill: #2b1b15;
      }

      .cls-241 {
        fill: #171110;
      }

      .cls-242 {
        fill: #77655b;
      }

      .cls-243 {
        fill: #a1735a;
      }

      .cls-244 {
        fill: #bb7a5e;
      }

      .cls-245 {
        fill: #8f6453;
      }

      .cls-246 {
        fill: #b19792;
      }

      .cls-247 {
        fill: #bc816a;
      }

      .cls-248 {
        fill: #ac836f;
      }

      .cls-249 {
        fill: #895743;
      }

      .cls-250 {
        fill: #c58783;
      }

      .cls-251 {
        fill: #dbbc93;
      }

      .cls-252 {
        fill: #6b5548;
      }

      .cls-253 {
        fill: #b98361;
      }

      .cls-254 {
        fill: #611117;
      }

      .cls-255 {
        fill: #11070a;
      }

      .cls-256 {
        fill: #e1c294;
      }

      .cls-257 {
        fill: #38281f;
      }

      .cls-258 {
        fill: #25160e;
      }

      .cls-259 {
        fill: #674737;
      }

      .cls-260 {
        fill: #cabdb4;
      }

      .cls-261 {
        fill: #945e41;
      }

      .cls-262 {
        fill: #5e3d3a;
      }

      .cls-263 {
        fill: #b06e64;
      }

      .cls-264 {
        fill: #c88a6b;
      }

      .cls-265 {
        fill: #bc785a;
      }

      .cls-266 {
        fill: #38241a;
      }

      .cls-267 {
        fill: #5c3d2e;
      }

      .cls-268 {
        fill: #5b3c2d;
      }

      .cls-269 {
        fill: #b57360;
      }

      .cls-270 {
        fill: #ac6758;
      }

      .cls-271 {
        fill: #884137;
      }

      .cls-272 {
        fill: #865a3d;
      }

      .cls-273 {
        fill: #180f0f;
      }

      .cls-274 {
        fill: #dacbd3;
      }

      .cls-275 {
        fill: #221512;
      }

      .cls-276 {
        fill: #28221f;
      }

      .cls-277 {
        fill: #6d3e31;
      }

      .cls-278 {
        fill: #c5876a;
      }

      .cls-279 {
        fill: #d19681;
      }

      .cls-280 {
        fill: #bc8a62;
      }

      .cls-281 {
        fill: #342f2e;
      }

      .cls-282 {
        fill: #d2c4a2;
      }

      .cls-283 {
        fill: #987567;
      }

      .cls-284 {
        fill: #331d19;
      }

      .cls-285 {
        fill: #7f625a;
      }

      .cls-286 {
        fill: #a295a1;
      }

      .cls-287 {
        fill: #2c2321;
      }

      .cls-288 {
        fill: #805745;
      }

      .cls-289 {
        fill: #411211;
      }

      .cls-290 {
        fill: #914a33;
      }

      .cls-291 {
        fill: #8c5743;
      }

      .cls-292 {
        fill: #4b443d;
      }

      .cls-293 {
        fill: #5b3831;
      }

      .cls-294 {
        fill: #d69375;
      }

      .cls-295 {
        fill: #a49da6;
      }

      .cls-296 {
        fill: #eca498;
      }

      .cls-297 {
        fill: #d59f7a;
      }

      .cls-298 {
        fill: #8e3930;
      }

      .cls-299 {
        fill: #251318;
      }

      .cls-300 {
        fill: #655757;
      }

      .cls-301 {
        fill: #efb9ae;
      }

      .cls-302 {
        fill: #c66e60;
      }

      .cls-303 {
        fill: #553224;
      }

      .cls-304 {
        fill: #c18872;
      }

      .cls-305 {
        fill: #d08274;
      }

      .cls-306 {
        fill: #3f1914;
      }

      .cls-307 {
        fill: #bf7a5f;
      }

      .cls-308 {
        fill: #453d38;
      }

      .cls-309 {
        fill: #e4d9cb;
      }

      .cls-310 {
        fill: #d2987a;
      }

      .cls-311 {
        fill: #af8b6c;
      }

      .cls-312 {
        fill: #c17d5d;
      }

      .cls-313 {
        fill: #d9b79c;
      }

      .cls-314 {
        fill: #674432;
      }

      .cls-315 {
        fill: #b8795c;
      }

      .cls-316 {
        fill: #d4c1a3;
      }

      .cls-317 {
        fill: #c7706e;
      }

      .cls-318 {
        fill: #a7846d;
      }

      .cls-319 {
        fill: #060907;
      }

      .cls-320 {
        fill: #4f3323;
      }

      .cls-321 {
        fill: #493222;
      }

      .cls-322 {
        fill: #a96b55;
      }

      .cls-323 {
        fill: #824a25;
      }

      .cls-324 {
        fill: #88321f;
      }

      .cls-325 {
        fill: #221a16;
      }

      .cls-326 {
        fill: #d6a18f;
      }

      .cls-327 {
        fill: #947d77;
      }

      .cls-328 {
        fill: #dba484;
      }

      .cls-329 {
        fill: #846857;
      }

      .cls-330 {
        fill: #e0b6a1;
      }

      .cls-331 {
        fill: #453f39;
      }

      .cls-332 {
        fill: #bbb0bd;
      }

      .cls-333 {
        fill: #322d2c;
      }

      .cls-334 {
        fill: #291c1c;
      }

      .cls-335 {
        fill: #1a1311;
      }

      .cls-336 {
        fill: #d78e80;
      }

      .cls-337 {
        fill: #98544e;
      }

      .cls-338 {
        fill: #0b080b;
      }

      .cls-339 {
        fill: #582e1f;
      }

      .cls-340 {
        fill: #cc8d76;
      }

      .cls-341 {
        fill: #a67d67;
      }

      .cls-342 {
        fill: #ba9d8c;
      }

      .cls-343 {
        fill: #ad6d53;
      }

      .cls-344 {
        fill: #6f5241;
      }

      .cls-345 {
        fill: #4b342b;
      }

      .cls-346 {
        fill: #270e0d;
      }

      .cls-347 {
        fill: #c37859;
      }

      .cls-348 {
        fill: #b68367;
      }

      .cls-349 {
        fill: #342e28;
      }

      .cls-350 {
        fill: #d9837a;
      }

      .cls-351 {
        fill: #d6a98c;
      }

      .cls-352 {
        fill: #e9c29f;
      }

      .cls-353 {
        fill: #030403;
      }

      .cls-354 {
        fill: #171619;
      }

      .cls-355 {
        fill: #c48c6b;
      }

      .cls-356 {
        fill: #bf9389;
      }

      .cls-357 {
        fill: #473121;
      }

      .cls-358 {
        fill: #6f5e58;
      }

      .cls-359 {
        fill: #493a2e;
      }

      .cls-360 {
        fill: #2d1b16;
      }

      .cls-361 {
        fill: #351611;
      }

      .cls-362 {
        fill: #a46959;
      }

      .cls-363 {
        fill: #7e6b71;
      }

      .cls-364 {
        fill: #b98260;
      }

      .cls-365 {
        fill: #f0bdaf;
      }

      .cls-366 {
        fill: #9c8573;
      }

      .cls-367 {
        fill: #e6e4c8;
      }

      .cls-368 {
        fill: #270e0f;
      }

      .cls-369 {
        fill: #d5ae8c;
      }

      .cls-370 {
        fill: #1d1310;
      }

      .cls-371 {
        fill: #674a3d;
      }

      .cls-372 {
        fill: #250f19;
      }

      .cls-373 {
        fill: #9a4a39;
      }

      .cls-374 {
        fill: #7f7276;
      }

      .cls-375 {
        fill: #1a0c0d;
      }

      .cls-376 {
        fill: #0e0a0b;
      }

      .cls-377 {
        fill: #8f614e;
      }

      .cls-378 {
        fill: #a04c26;
      }

      .cls-379 {
        fill: #a6745a;
      }

      .cls-380 {
        fill: #28130f;
      }

      .cls-381 {
        fill: #66493e;
      }

      .cls-382 {
        fill: #372b21;
      }

      .cls-383 {
        fill: #3c312b;
      }

      .cls-384 {
        fill: #341b16;
      }

      .cls-385 {
        fill: #4e3f36;
      }

      .cls-386 {
        fill: #c08360;
      }

      .cls-387 {
        fill: #b98c70;
      }

      .cls-388 {
        fill: #a97967;
      }

      .cls-389 {
        fill: #6b4a35;
      }

      .cls-390 {
        fill: #96573e;
      }

      .cls-391 {
        fill: #c36057;
      }

      .cls-392 {
        fill: #322925;
      }

      .cls-393 {
        fill: #a97058;
      }

      .cls-394 {
        fill: #674d39;
      }

      .cls-395 {
        fill: #ca9871;
      }

      .cls-396 {
        fill: #c99473;
      }

      .cls-397 {
        fill: #bd8563;
      }

      .cls-398 {
        fill: #cc8571;
      }

      .cls-399 {
        fill: #803833;
      }

      .cls-400 {
        fill: #9e5646;
      }

      .cls-401 {
        fill: #191010;
      }

      .cls-402 {
        fill: #362823;
      }

      .cls-403 {
        fill: #1f130d;
      }

      .cls-404 {
        fill: #130e0e;
      }

      .cls-405 {
        fill: #704731;
      }

      .cls-406 {
        fill: #9c6855;
      }

      .cls-407 {
        fill: #ab7656;
      }

      .cls-408 {
        fill: #c88563;
      }

      .cls-409 {
        fill: #d08072;
      }

      .cls-410 {
        fill: #e0afad;
      }

      .cls-411 {
        fill: #dc8a83;
      }

      .cls-412 {
        fill: #d39477;
      }

      .cls-413 {
        fill: #2e201b;
      }

      .cls-414 {
        fill: #dcc1a8;
      }

      .cls-415 {
        fill: #b08c86;
      }
    </style>
  </defs>
  <ellipse class="cls-122" cx="25.02" cy="33.25" rx="25.02" ry="33.25"/>
  <g>
    <path class="cls-122" d="M16.42,59.04s.9,3.61,1.62,4.35,2.1,1.79,3.38,2.11,1.9.64,3.03.53,2.57-.37,3.21-.37,2.96-.46,4.38-1.07,4.19-2.43,5.2-2.99,3.64-2.43,4.78-3.78,2.95-3.8,2.95-3.8l-25.23.66-3.31,4.36Z"/>
    <path class="cls-43" d="M34.01,63.08s5.79-3.42,7.85-5.72c2.05-2.3,3.11-4.21,3.37-5.25s-5.8-3.07-5.8-3.07l-4.86,5.05-.56,8.98Z"/>
    <path class="cls-300" d="M41.02,54.15s1,.92,2.21.78,1.55-1.02,1.55-1.02l-1.16-1.98-2.81.47-1.08,1.64,1.3.1Z"/>
    <path class="cls-363" d="M39.54,55.79s1.99-.36,1.67-1.22-.48-.71.51-.43,1.36.67,2.53-.29-1.09-2.55-1.09-2.55l-3.7-.69-2.29.08-.12,2.51,2.5,2.59Z"/>
    <path class="cls-295" d="M27.21,65.33s1.96.06,4.48-.99c2.52-1.05,6.44-4.09,7.31-6.01s.72-4.28.72-4.28l-3.86-3.35-10.53,6.67-3.02,3.41,1.44,2.73,3.46,1.84Z"/>
    <path class="cls-286" d="M26.31,62.74s.24-.6,1.71-1.07,2.28-1.34,2.99-2.22,1.47-2.8,1.47-2.8l-11.05,1.35.29,3.8,4.6.95Z"/>
    <path class="cls-274" d="M25.07,61.34s1.21-.72,1.86-.83,1.42-.28,2.3-.77,2.42-.81,3.34-1.92-9.22-1.58-9.22-1.58l-5.75-1.75-1.79,1.13,1.57,2.99,3.44,3.99,4.11.28.15-1.54Z"/>
    <polygon class="cls-332" points="21.42 61.04 20.46 63.29 17.95 62.26 17.17 60.92 16.72 59.85 16.42 59.04 16.4 58.69 16.93 58.39 17.31 57.36 18.13 57.95 18.41 58.88 19.21 59.6 20.49 60.41 21.42 61.04"/>
    <path class="cls-88" d="M16.42,59.04s.7,2.26,1.18,3,1.36,1.77,2.4,2.31,2.64,1.29,3.84,1.21,3.37-.23,3.37-.23c0,0,.39-1.62-.9-2.6s-1.24-1.4-1.24-1.4c0,0-1.69.37-3.65-.3s-.18,1.56-1.52,1.53-2.82-1.68-3.48-3.53Z"/>
    <path class="cls-56" d="M28.33,59.76s3.71-1.55,4.24-1.94,3.17-2.01,3.8-2.75l.63-.75,2.19-3.52-5.25-2.26h-1.21s-3.51,1.62-3.51,1.62l-.89,9.6Z"/>
    <polygon class="cls-136" points="35.28 51.3 37.04 52.61 37.48 48.32 36.66 45.07 34.63 44.71 33.61 48.18 35.28 51.3"/>
    <path class="cls-230" d="M46.56,43.95s1.03.79,1.9.93c0,0-1.01-.21-.99,0s1.82.79,1.82.79c0,0-1.36-.37-1.37-.07s1.8.58,1.8.58c0,0-.44.21-.88.2s.11.73.49.71-.79.14-.31.27.87.72,1.67.37l-.79.44,1.19.07-.98.56s1.02.1,1.63-.57c0,0-.82,1.68-2.43,1.36s-1.99-.7-1.99-.7l-4.09-1.86.34-2.16,2.99-.91Z"/>
    <path class="cls-335" d="M44.93,54.43s1.85.39,2.79-.11.72-.51.72-.51c0,0-1.36.17-1.88-.82s.28.05.96,0-.43-.55-.95-.77-.61-.65.41-.59,4.25,2.2,4.63,2.26.53.02.9-.44.76-1.88.32-1.83-1.33-.05-2.04-.15.71.13,1.55-.64-.16-.03-1.72-.29.88.43,1.82-.59-1.77,1-4.08-.2-3.69-2.96-3.69-2.96h-1.55l-2.82.9.19,2.38,4.46,4.36Z"/>
    <path class="cls-353" d="M41.86,52.5s.6,1.56,2.18,1.82,1.42,0,1.42,0c0,0-1.01-.55-1.66-1.13s2.08-.08,2.08-.08c0,0-2.31-.98-3.05-2.05s-2.24-2.88-2.24-2.88l-.66.38v2.75l1.93,1.19Z"/>
    <path class="cls-276" d="M38.87,52.23s.79,1.23,1.59,1.23,1.39-.96,1.39-.96c0,0-.84-1.4-1.07-2.88s.03-1.84.03-1.84l-1.03-1.13-2.57.23-.71,2.21,1.02,1.99,1.33,1.16Z"/>
    <path class="cls-182" d="M37.07,52.75l.9.69.1.36.16-.25.69.95-.05-.47.56.6-.12-.32.82.61-.28-.44.51.16-.66-.61.74.4s-1.21-1.03-1.38-1.77-2.01-2.61-2.01-2.61l-.27,1.05.27,1.63Z"/>
    <path class="cls-36" d="M36.04,44.82s-.33,2.67.06,4.26.25,2.91.25,2.91l.66.99.5-1.65s.16.89.83,1.35-.19-1.86-.36-2.39-1.28-.86,0-4.02.22-3.9.22-3.9l-3,.17.84,2.27Z"/>
    <path class="cls-5" d="M37,54.32s-.72-1.36-1.29-1.92-1.51-1.31-1.51-1.31l1.08-1.55s.68,1.23.82,1.74.68,1.25,1.11,1.57.77.58.77.58c0,0-.34.56-.97.89Z"/>
    <path class="cls-55" d="M23.35,60.94s.7.37,2.53-.3,2.04-.69,3.13-1.17,1.6-1.55,1.88-2.53,1.54-1.65,2.43-2.74.66-1.86,1.59-1.98.51-1.62.31-3.17.89-3.88.89-3.88l-4.64.34-10.03,3.58-3.09,4.89,2.68,3.8,2.34,3.18Z"/>
    <path class="cls-369" d="M23.35,60.94s1.18.13,1.33-.88-1.25-1.33-2-2.07,0-2.06,0-2.06l-4.72-.9-.06,1.75.77,1.1,1.4,1.42,1.01.96,1.24.51,1.03.18Z"/>
    <path class="cls-83" d="M17.54,57.67s.44.3.54.57.34,1.15.98,1.48,1.46.85,1.82,1.07.54.24.54.24c0,0-1.17-.99-1.72-1.31s-1.06-.77-1.19-1.2-.1-.54-.1-.54c0,0-.63-.39-.81-.77s-.05-1.35-.05-1.35l-.61-.77-.51,1.56,1.12,1.01Z"/>
    <path class="cls-374" d="M17.54,57.67s.2,1.05-.17.93-.48.65-.48.65c0,0-.47.03-.48-.57s.06-.98.06-.98l.29-.98.46.34.34.61Z"/>
    <path class="cls-234" d="M17.13,55.67s.01.98.31,1.71-.19.19-.31-.12,0,1.07,0,1.07c0,0-.84-.13-.67-.62.15-.44-.24-1.39-.24-1.39l.91-.66Z"/>
    <path class="cls-210" d="M22.91,57.13s1.11,2.4,4.85-.47,3.81-4.01,4.23-5.97,1.68-4.36,3.18-4.41,1.18-4.86,1.18-4.86l-5.05,1.29-10.12,6.72-3.96,1.36,3.2,4.59,2.5,1.73Z"/>
    <path class="cls-160" d="M19.32,53.82s7.39,3.66,2.62,3.43-3.78-3.72-3.78-3.72l1.15.29Z"/>
    <path class="cls-311" d="M20,56.87s.5-1.04-.27-2.19-.86-1.04.96-.36,2.98-3.29,2.98-3.29l-5.37-1.03-1.62,1.62.59,2.2,1.7,2.26,1.03.8Z"/>
    <path class="cls-54" d="M20,52.85s1.32,1.85,6.05,2.18,4.67-2.61,4.9-4.61,5.08-7.07,5.08-7.07l-5.54-.26-10.5,4.62v5.14Z"/>
    <path class="cls-76" d="M18.57,57.37s.64.91,1.37,1.52,1.44,1.23,2.09,1.47,1.32.58,1.32.58c0,0-1.62-.08-2.18-.44s-.99-.89-1.58-1.13l-.32-.26-.27-.33-.34-.57-.4-.68-.32-.39-.14-.51.53.05.22.69Z"/>
    <path class="cls-37" d="M17.92,56.66s.09.49.27.65.12.32.52.87.41.88.89,1.07c0,0,.23.18,0,.12s-.59-.47-.73-.68-.35-.8-.52-.94-.43-.5-.54-.82-.5-1.09-.5-1.09l.13-.98.13.02.62.54-.29,1.23Z"/>
    <path class="cls-7" d="M17.13,55.67s.3,1.07.68,1.27c0,0-.18-.69-.17-1.21s.34-1.15.34-1.15h-.97l-.27.56.39.52Z"/>
    <polygon class="cls-170" points="16.57 53.58 17.78 53.41 17.96 55.04 16.08 54.79 16.57 53.58"/>
    <path class="cls-147" d="M17.27,53.81s.45,2.39.63,2.97c0,0,.77,1.18,2.76,1.01s-.43-.31-1.53-2.5-2.22-2.85-3.18-2.89,1.32,1.41,1.32,1.41Z"/>
    <path class="cls-389" d="M36.32,44.78s-.52-2.27-1.59-.7-2.48,2.35-2.48,2.35l1.68-7.31,3.05-1.18-.1,4.36-.57,2.49Z"/>
    <path class="cls-287" d="M20,52.85s.5-.71,1.29-.23.97.56.97.56c0,0-.69-.99.4-.97s1.82.09,3.22-.6,2.3-1.84,2.38-2.35,1.15.38,1.43-1.2-.12-2.25-.12-2.25l-1.44-2.65-5.69,1.49-3.82,4.73.34,1.31-.38,1.3.91.72.51.14Z"/>
    <path class="cls-202" d="M21.23,51.81s1.96-.47,2.77,0,.81-.7.8-1.38,1.17.71,1.57-.37.94-2.42-.16-1.99-1.95.68-2.65.49-2.89,2.67-2.89,2.67l.57.58Z"/>
    <path class="cls-402" d="M21.07,50.69s.08-1.22,1.3-1.94.74-2.04,1.62-2.25.89,1.38,1.78,1.25.18-2.2,1.39-2l1.2.2,1.05-4.51-5.56,1.27-3.54,2.8-1.4,3.67,2.15,1.53Z"/>
    <path class="cls-9" d="M15.35,59.26s.07-.26.06-.54.52-.36.53-.86.11-.94.48-1.2.72-.5.72-.5v-.99l-1.78-.69-1.08.74-.48,3.1.41.51,1.15.42Z"/>
    <path class="cls-214" d="M12.48,60.88s.45-.03,1.32-.48.73-1.12.8-1.24.49.55.76.28-.41-.08-1.07-1.29-1.81,1.12-1.81,1.12v1.61Z"/>
    <path class="cls-233" d="M12.48,60.88s1.26-.62,1.16-1.15.16-1.41.16-1.41l-2.79-.33-.71,1.05.58.39s.19.65-.78.9c0,0,.53.23,1.3-.12s.34.25.01.34.73-.11.73-.11c0,0-.43.19.34.43Z"/>
    <path class="cls-91" d="M10.94,58.54s-.52.44-.2.65.31.21.31.21c0,0-.57.25-1.22.32s.22-.19,0-.3-.79-.16-.79-.16c0,0,.68-.1.84-.21s-.11-.59-.11-.59l1.09-.75h.66l-.6.83Z"/>
    <path class="cls-3" d="M10.67,57.56s-1.01.7-1.29,1.14-.19.66,1.61-.71-.33-.43-.33-.43Z"/>
    <path class="cls-321" d="M11.81,56.49s-1.28.61-1.14,1.07.3.26.27.98,1.79-.08,1.79-.08l1.15-1.75.87-2.23h-.95l-1.98,2.01Z"/>
    <path class="cls-241" d="M12.36,57.07s-.37.85-1.21,1.3.39,1.17,1.32.89,1.69-.79,1.67-.1.32-.93.55-1.21-.2-.9-.23-1.17.71-.75,1.17-.73,1.07-.36,1.09-.62-1.72-1.12-1.72-1.12l-1.45,2.05-1.17.7Z"/>
    <path class="cls-413" d="M17.13,55.67s-1.21-.21-1.51-.56-1.35,1.32-1.99,1.83-1.59.18-1.59.18c0,0,1.82-1.6,1.87-2.01s1.33-1.1,1.33-1.1l.97.09.7,1.01s.22-.16.2.56Z"/>
    <path class="cls-115" d="M12.03,53.4s.3,1.06-.9,1.71-2.16,1.02-2.16,1.02c0,0,1.95-.46,2.46-.69s-.75.7-1.29.79.6.43.99.24,1.5-1.51,1.5-1.51c0,0,.04.8-1.34,1.7s1.48-.61,2.63-1.55.08-3.3.08-3.3l-.77-.34-1.2,1.93Z"/>
    <path class="cls-380" d="M15.35,54.61s1.63.74,2.23.82-.66-.32-.66-.32c0,0,.65,0,.82-.15s-.43,0-.64-.35l-.21-.35.4-.16-1.11-1.08-.84.26v1.34Z"/>
    <path class="cls-78" d="M15.14,54.68s.29.02.33-.3.68-.39.75-.71-1.13-1.1-1.13-1.1l-1.27-.19-.15.65,1.36,1.65h.1Z"/>
    <path class="cls-49" d="M14.95,53.04s1.62.96,1.98,1.01l.36.05-.1-.91-.18-1.07h-1.81l-.26.93Z"/>
    <path class="cls-392" d="M14.8,52.85s.43.57,1.25.22,1.15.12,1.15.12v-.97l-2.5-1.79-.67.91.35,1.35.41.16Z"/>
    <path class="cls-230" d="M13.44,52.14s-1.02,1.81-.62,2.04.07.38.53.42.07.5.57.51,1.22-.1,1.22-.42-.7-.98-.87-1.55.26-1.73.87-2-.3-1.48-.3-1.48l-1.34.29-.27,1.52.2.68Z"/>
    <path class="cls-116" d="M13.93,50.7s.04,1.81.34,2.44.09-.28.09-.28c0,0,.15.47.52.69s-.34-.69-.34-.69l.6.39s-1.11-.99-1.07-2.66-.19-.76-.14.11Z"/>
    <path class="cls-134" d="M12.03,51.46s-.49.49-.42.86.07,1.19.42,1.07,1.4-.96,1.6-1.29.24-.76.29-1.15.62-1.07.62-1.07l-1.21-1.82-.26.98-.6,1.29-.44,1.13Z"/>
    <path class="cls-357" d="M12.18,49.66s.1.55-.16,1.14-.05.97.33.34.85-1.85.98-2.36-.53-.78-.53-.78l-.62,1.65Z"/>
    <path class="cls-394" d="M11.61,47.43s0,1.21.31,1.84.48.6.67-.07.74-1.13.74-1.13l-1.15-1.27-.57.63Z"/>
    <path class="cls-403" d="M11.58,46.31s-.27,1.18-.28,1.75,0,.88,0,.88c0,0-.12-1.76-.1-2.03s-.38.1-.71.38.89-.93,1.02-1.47.61-.17.07.5Z"/>
    <path class="cls-178" d="M12.36,47.39s-.7.1-.95.55-.03-1.17.33-1.85,2.4.03.63,1.3Z"/>
    <path class="cls-108" d="M17.96,52.84h2.04s-.77-.19-.49-.85.23-2.72.23-2.72l-4.09-.52-1.11.22.35,1.73s1.28,1.84,3.06,2.15Z"/>
    <path class="cls-333" d="M12.99,48.55s1.82,2.9,2.71,3.66,2.26.63,2.26.63c0,0-2.23-1.73-2.3-2.68s-2.05-1.72-2.67-1.61Z"/>
    <path class="cls-11" d="M16.4,50.58s1.26.38,2.12,0,.99,1.41.99,1.41l1.18-.35-.64-3.31h-4.9s-.17,1.21,1.25,2.25Z"/>
    <path class="cls-142" d="M18.3,49.99s.99-.46,1.61.07-.42,1.49-.4,1.93,2.21.24,1.99-.69-1.01-1.25-.66-2.03,1.07-.72,1.53-1.39.26-1.9.72-2.47,1.29.28,1.85.49,1.12-1.95,1.12-1.95l-2.77-1.58-5.12,1.45-.79,3.27.93,2.91Z"/>
    <path class="cls-103" d="M15.68,49.49s1.19.81,2.62.51,1.42-2.13,1.43-3.46-8.74-8.94-8.74-8.94l-3.45,2.89,4.04,4.31,2.31,3.92,1.78.79Z"/>
    <path class="cls-292" d="M10.62,45.02s2.36,3.13,3.02,4.24,2.24,2.21,2.12.64-2.79-3.87-3.05-4.65-2.59-3.56-2.59-3.56l-1.57,1.66,2.07,1.67Z"/>
    <path class="cls-249" d="M18.33,49.04s2.11-.28,2.1-1.53.88-.19.88-2.02-3.44-3.73-3.44-3.73l-1.47,1.59.36,3.33,1.58,2.35Z"/>
    <path class="cls-245" d="M18.33,49.04s1.41-.72.86-1.8-1.28-.77-.77-1.75.71-1.3-.76-1.1-1.69.67-1.69.67l1.25,3.14,1.11.84Z"/>
    <path class="cls-329" d="M12.58,42.55s2.03,5.35,3.61,6.26,2.53.41,2.52-.73-1.53-2.23-1.49-2.86.71-2.05.71-2.05l-3.03-2.79h-2.54l.23,2.19Z"/>
    <path class="cls-388" d="M15.2,45.52s1.74,2.58,2.47,2.54-.3-1.62-.65-2.17-.5-1.18.25-1.33.9-.9.9-1.4-2.43-.17-2.43-.17l-.5,1.08-.04,1.44Z"/>
    <path class="cls-218" d="M19.74,45.21s-.64-1.29-1.58-1.39-1.12-1.45-1.12-1.45l4.03.09.87.39-.15,1.49-1.47,1.15-.58-.28Z"/>
    <path class="cls-131" d="M22.91,44.44s-1.36,1.45-2.22,1.76-1.61-.28-.95-.99,1.45-.54,1.57-1.54,1.59.77,1.59.77Z"/>
    <path class="cls-181" d="M21.01,43.95s-.58-.6-.6-1.29,1.13-3.17,1.13-3.17l4.51-2.08.9,2.78-2.24,2.17-1.94,1.38-1.76.2Z"/>
    <path class="cls-364" d="M21.01,43.95s2.13-.77,2.73-2.43,2.63-.89,2.63-.89c0,0-2.14,3.22-3.7,3.94s-1.65-.62-1.65-.62Z"/>
    <path class="cls-68" d="M16.33,45.07s-.79-1.34.89-1.36,3.5-.23,4.21-1.05.48-2.33-.23-2.6-5.66.92-5.66.92l-.74,1.56.4,2.03,1.13.49Z"/>
    <path class="cls-398" d="M16.36,42.17s1.27.43,2.99-.12,2.46-1.78,2.46-1.78l-5.89,1.15.45.75Z"/>
    <path class="cls-185" d="M14.31,44.34s-.79-1.37-.96-2.58,1.4-2.28,1.4-2.28l.79,1.5-.52,2.38-.71.97Z"/>
    <path class="cls-127" d="M15.65,43.68s.48.41.68,1.39-.47,1.12-1.35.26-1.26-2.71-.93-3.36,1.09-1.54,1.09-1.54l.61.64.35,1.29-.44,1.31Z"/>
    <path class="cls-156" d="M15.38,41.93s-.54.61-.13,1.75.19-.57,1-.69,2.68,1.01,4.75-1.01-1.03.68-2.58.67-1.99.29-2.09-.69-.95-.04-.95-.04Z"/>
    <path class="cls-226" d="M14.2,40.77s.78,1.01,1.18,1.17,1.77.23,3.24-.29,2.06-.97,2.06-.97l-.2-.88-1.88-.35-2.69.84-1.71.49Z"/>
    <path class="cls-150" d="M15.45,40.77s.04.5-.14.75-.29.54,1.02.46,1.13-.68.71-.86-1.59-.35-1.59-.35Z"/>
    <path class="cls-410" d="M15.68,41.42s.52.12.91.12-.2.43-.67.43-.69-.09-.24-.56Z"/>
    <path class="cls-102" d="M23.08,39.97s-.76.76-2.07,1.05.53-1.52.53-1.52l1.55.48Z"/>
    <path class="cls-317" d="M19.19,40.34s.44.02.44.53-1.76.9-1.76.9c0,0,3.38-.41,4.13-1.4s-2.14-.77-2.14-.77l-.95.31.28.44Z"/>
    <path class="cls-161" d="M19.22,40.07s.33.61-.26.94-2.6.7-3.21.06.41-1.94.41-1.94l1.81.25,1.25.7Z"/>
    <path class="cls-45" d="M22.44,40.04s-.58.58-1.46.63-1.46-.37-1.47-.54,1.66-1.44,1.66-1.44l2.73-.23.51.19-1.17,1.06-.79.33Z"/>
    <path class="cls-269" d="M24.93,38.28s-.92,1.18-1.73,1.64-1.03.18-.39-.22,1.98-1.7,1.98-1.7l.13.29Z"/>
    <path class="cls-253" d="M24.93,38.28s-.57,1.02-.08,1.7,2.55-1.23,2.55-1.23v-2.62s-1.89.27-1.89.27l-.58,1.88Z"/>
    <path class="cls-257" d="M28,46.77s.03,2.12.93,1.73,1.87-.47,2.79-1.32,1.72-1.59,1.73-1.92-.24-.59.1-.82.78-.64.78-.86.55-.77.57-.91-2.91-1.46-2.91-1.46l-1.32.46-2.67,5.11Z"/>
    <path class="cls-195" d="M27.87,45.13s-.43,1.52.39,1.83,1.08,1.16,1.28.86,0-1.67.61-1.85,1.01-.75.89-1.12-.21-.97.49-.91.56-.45-.25-1.22-2.24-.34-2.24-.34l-1.18,2.75Z"/>
    <path class="cls-123" d="M25.9,44.33s.35-.42,1.26-.27.35,1.55,1.34,1.56.89-.98.87-1.59.23-.68,1.12-.93.36-.17,1.17-.6.68.54,1.4.47,1.88.13,2.29-.83-1.41-3.01-1.41-3.01l-4.9.55-2.69.1-.66,1.65-1.35,1.96,1.54.95Z"/>
    <path class="cls-314" d="M26.24,38.62s-.31,2.22-1.27,3.56-1.64,1.49-.95,1.58,1.61.67,1.88.56.26-.84-.49-.75-.75-.53-.1-.5.9-.39.92-1.13-.22-1.32.13-1.31,1,.78,1.41.79.37.94,1.27.96.69-.4.67-.96.56-.41,1.06-.4.81.39,1.23-.35.52-4.47.52-4.47l-1.19-.99-1.31.05-2.4,2.01-1.29-.12-.1,1.5Z"/>
    <polygon class="cls-1" points="24.03 38.83 24.6 38.43 24.8 37.99 24.07 37.84 23.57 38.25 23.59 38.71 23.77 38.87 24.03 38.83"/>
    <path class="cls-342" d="M24.03,38.83s.39-.2.33-.44-.19-.1-.33.04-.22.33,0,.4Z"/>
    <polygon class="cls-225" points="22.57 39.08 22.91 39.16 23.68 38.71 23.88 37.93 23.21 37.68 22.38 38.28 22.49 38.68 22.57 39.08"/>
    <path class="cls-362" d="M22.26,39.42s1-.27,1.39-.43l.39-.16s-.53,0-.14-.37.22-.73.22-.73l-.56.39s.13.28,0,.53-.79.46-.79.46c0,0-.24-.41.05-.79s-.55.91-.55.91v.18Z"/>
    <path class="cls-175" d="M22.57,39.29s.28-.32.31-.66.48-.33.65-.16.05.56-.96.83Z"/>
    <polygon class="cls-256" points="21.94 39.03 22.5 39.11 22.7 38.05 22.57 37.54 21.9 37.72 21.2 38.37 21.69 38.77 21.94 39.03"/>
    <path class="cls-155" d="M22.2,39.49s.39-.11.37-.2.01-.76.34-1.01.64-.44.64-.44l-.34-.16-.77-.02s.14.52.1.85-.56.66-.56.66l.22.31Z"/>
    <path class="cls-256" d="M22.2,39.2s.09-.19.1-.58,0-.35-.36-.16-.59-.33-.59-.33l-.27.79.61.37.51-.08Z"/>
    <path class="cls-27" d="M21.53,39.49s.64.15.73-.07-.14-.63-.36-.64-.56-.18-.11-.42.79-.51.79-.81-.94-.53-.94-.53l-.65,1.06-.14.84.33.6.36-.02Z"/>
    <path class="cls-201" d="M19.63,40.04s.63-.11.86-.24.64-.13.9-.21.2-.16.1-.26-.91-.34-.91-.34l-1,.27-.2.43.25.35Z"/>
    <path class="cls-162" d="M16.91,40.58s1.37-.07,1.62-.2.39-.34.68-.32.51-.03.52-.16-.24-.59-.24-.59l-3.04.28-.12.88.58.11Z"/>
    <path class="cls-378" d="M16.02,40.67s.74.12.82-.05,0-.22.13-.43-.28-.4-.28-.4l-.82.31-.03.36.18.21Z"/>
    <path class="cls-227" d="M15.6,40.75s-.02.31.27.07.32-.24.23-.44-.49.38-.49.38Z"/>
    <path class="cls-289" d="M17.33,40.02s-.16.12,0,.12.58-.09.71-.16.39-.07.62-.06.49-.05.66-.13.31-.1.55-.2.69-.1.89-.12.46-.16.52-.18.26.16.27.2.21-.09-.27-.41-1.33-.4-1.33-.4h-.88s-1.55.73-1.55.73l-.18.61Z"/>
    <path class="cls-414" d="M21.23,38.48s.16.55-.19.78-.9.11-1.05-.03-.36-.96-.36-.96l.29-.82.47-.1.3.05.54,1.08Z"/>
    <path class="cls-85" d="M20.19,39.2s-.1-.64,0-1.1.31-.82.41-.85.61.84.56,1.44-.39.59-.63.6-.33.01-.35-.09Z"/>
    <path class="cls-104" d="M19.91,38.61s.05-.7.38-.98.5.02.63.23.31.68.31.68l-.11-1.27-.71-.27-.36.24-.41.43.29.95Z"/>
    <polygon class="cls-50" points="18.96 37.81 19.74 38.35 19.83 38.26 19.78 37.65 19.5 37.35 19.1 37.31 18.97 37.74 18.96 37.81"/>
    <path class="cls-109" d="M19.23,37.81s.17-.03.04-.25-.72-.26-1.1.18-.55.93-.37,1.18,1.22,0,1.22,0l.21-1.11Z"/>
    <path class="cls-235" d="M19.86,39.2s.04-.66.06-.89-.23-.12-.29.02-.23.62.23.88Z"/>
    <path class="cls-316" d="M19.83,39.1s0-.52-.09-.75-.27-.57-.62-.58-.83.21-.96.49-.08.4,0,.67.95.3.95.3l.71-.13Z"/>
    <path class="cls-38" d="M18.01,38.85s.13-.12.13-.1.05.18.22.13.18-.22.31-.2.34.01.51.15.3.18.31.43-.71.3-.71.3l-.9-.02.06-.41.06-.27Z"/>
    <path class="cls-282" d="M17.97,39.38s.1-.31.26-.27.09.32.2.12.53-.33.69-.06.33.13.35,0-.06-.2.16-.19.26.21.22.39-.23.31-.5.27.01.17-.77.17-.47-.12-.65,0-.64.14-.73.04-.11-.61,0-.78.75-.15.75-.15l.02.46Z"/>
    <path class="cls-352" d="M16.05,40.43s.37-.11.47-.27.03-.11.17-.04.32-.03.63-.11.67-.08.69-.21-.4.18-.98-.04-1.16.33-1.16.33l.17.33Z"/>
    <path class="cls-309" d="M16.57,39.7s.33.16.41-.03.39-.62.39-.62l-1.01-.37-.05.65.25.38Z"/>
    <path class="cls-105" d="M16.74,38.92s.05.47-.05.48-.04-.7-.04-.7l.09.22Z"/>
    <path class="cls-107" d="M16.61,38.92s-.05.5,0,.67c0,0,.16.22.27-.19s.82-.28.79.25-.92.37-.97.37-.28-.24-.27-1.04.18-.06.18-.06Z"/>
    <path class="cls-84" d="M15.65,40.75s.42-.24.63-.55-.37-.83-.37-.83l-.55.21v.43s.29.74.29.74Z"/>
    <path class="cls-157" d="M15.72,39.89s0,.02,0,.05c.02.14.12.51.43.38.37-.16.37-.52.37-.52l-.1-.64-.47.04-.36.36"/>
    <path class="cls-132" d="M15.8,39.85s.24.34.38.05-.04-.83-.04-.83h-.4l-.06.3.13.48Z"/>
    <path class="cls-17" d="M15.79,39.39s.12.28.23.18.13-.44.13-.44l-.18-.21h-.3s0,.46,0,.46h.11Z"/>
    <path class="cls-51" d="M13.64,40.11s.64.88,1.11.9.7-.25.7-.25l-1.46-.92-.35.05v.21Z"/>
    <polygon class="cls-110" points="13.84 39.94 14.18 40.44 14.7 40.64 15.24 39.6 14.89 38.35 14.64 37.77 13.88 38 13.57 38.75 13.61 39.58 13.84 39.94"/>
    <path class="cls-190" d="M13.7,39.53s.32.36.35.54.42.41.42.41l.67-.04v.42s-.33.03-.65-.12-.79-.9-.79-.9v-.3Z"/>
    <path class="cls-146" d="M14.83,40.64s.37.39.62.12-.08-1.79-.08-1.79l-.27-.77-.46.03-.06.77.06.74.19.9Z"/>
    <path class="cls-373" d="M14.52,37.86s-.24.21-.27.65-.31.7,0,.86.3.28.34.51-.22.23-.24.4.5.48.48.35-.04-.19.06-.29-.06-.18-.07-.38.16-.29-.08-.49-.15-.66-.15-.66l.2-.65.14-.5-.41.19Z"/>
    <polygon class="cls-358" points="9.83 41.97 11.73 40.75 9.32 37.19 8.07 38.83 8.55 41.59 9.83 41.97"/>
    <polygon class="cls-18" points="15.28 39.51 15.6 39.57 15.73 39 15.28 38.92 15.14 38.92 15.28 39.51"/>
    <path class="cls-199" d="M15.19,39.4s.24.71.22,1.08.15.48.24.28,0-.84-.06-1.06-.46-.46-.46-.46l.05.16Z"/>
    <path class="cls-200" d="M17.87,39.26s-.07.2.06.23.17-.37.13-.56-.22-.74.37-1.21-.68.17-.68.17l-.2.73.32.65Z"/>
    <path class="cls-191" d="M16.5,39s-.04-.14.24-.02.52.3,1.13.29c0,0,.1-.29-.1-1.05s-.73-.49-.73-.49l-.51.36-.18.59.14.32Z"/>
    <polygon class="cls-301" points="15.9 38.35 16.37 38.58 16.58 38.39 16.91 37.93 16.47 37.77 15.99 37.93 15.81 38.29 15.9 38.35"/>
    <path class="cls-250" d="M16.08,38.23s.17.17.27.14.03-.23.03-.23h-.41l.11.09Z"/>
    <polygon class="cls-330" points="15.8 38.77 16.17 39 16.45 38.77 16.56 38.61 16.54 38.46 16.35 38.44 16.29 38.48 16.22 38.5 15.99 38.35 15.72 38.55 15.8 38.77"/>
    <path class="cls-326" d="M16.64,38.21s-.21.3-.14.38.05-.13.22-.33.19-.27.39-.26.27-.04.25-.19-.53-.07-.6.12-.13.28-.13.28Z"/>
    <path class="cls-207" d="M16.32,38.78s.17-.12.29-.35c0,0-.1.51-.09.89s-.16-.25-.16-.25l-.04-.29Z"/>
    <path class="cls-313" d="M16.32,39.42s.13-.03.14.18.18.48.15.34-.09-.58-.09-.78-.11-.35-.2-.38-.26.02-.26.02l.14.45.12.16Z"/>
    <path class="cls-237" d="M15.76,39.17s.12,0,.18.15.1.12.09-.07.1.02.14.1.09.28.13.35.04-.36-.02-.56-.19-.45-.28-.44-.23.01-.23.01l-.04.3.04.17Z"/>
    <path class="cls-251" d="M15.6,39.07s-.24.12-.17.3.16.62.31.57.2-.27.06-.55-.07-.58-.07-.58l-.12.26Z"/>
    <path class="cls-89" d="M15.79,38.92s.09-.22.2-.37.15-.29.03-.28.1-.18.1-.18l-.5.14-.13.09h-.31l-.1.36.29.19.42.04Z"/>
    <path class="cls-196" d="M15.6,38.77s.11.03.16-.13.06.04.04.19-.07.24-.07.24l-.24-.09.1-.21Z"/>
    <path class="cls-57" d="M15.28,38.62s.1-.08,0-.16-.23.08-.23.08c0,0,.03.5.08.7s.15.45.14.27,0-.46,0-.59.19-.09.19-.09l-.19-.21Z"/>
    <path class="cls-31" d="M15.08,38.69s.02-.18.16-.18c.07,0-.05-.27-.05-.27l-.16.06-.03.35.09.04Z"/>
    <path class="cls-144" d="M15.12,38.35s0,.33.33.03.31-.83.31-.83l-.71-.03-.07.78.14.04Z"/>
    <path class="cls-99" d="M15.55,39.07s-.32,0-.29-.19.4-.06.46.12-.18.07-.18.07Z"/>
    <path class="cls-336" d="M15.55,39.07s.2.22.24.32-.03-.25,0-.41-.05.11-.24.09Z"/>
    <path class="cls-172" d="M15.72,38.55s.14-.29.3-.28.15.22.28.17.13-.19.2-.17.05.23-.06.31-.23-.08-.38-.16-.32.55-.33.12Z"/>
    <path class="cls-149" d="M15.74,38.17l.04-.69.59-.06.14.47-.29.26s-.39.07-.48.15.01-.13.01-.13Z"/>
    <path class="cls-239" d="M15.44,37.7s.2-.06.11.24-.14.44-.18.55.09.22.2.21.05-.11.1-.23.22-.17.14-.54-.32-.44-.37-.23Z"/>
    <path class="cls-143" d="M16.06,37.5s.21.06.21.23.08.27.08.27l.24-.18-.16-.45-.38-.02v.15Z"/>
    <path class="cls-40" d="M15.78,38.09c-.02.13-.19.13-.12-.1s-.04-.33-.17-.31-.29.08-.29.08l-.11-.19.77-.33h.38s-.07.19-.22.29-.21.3-.25.55Z"/>
    <path class="cls-66" d="M16.02,38.18c.2.05.24.11.29.14s.16-.23.2-.34-.11-.11-.24-.15-.02.1-.17.1c0,0-.46.15-.09.25Z"/>
    <path class="cls-118" d="M15.99,37.42l.19-.2.44-.07.3.29s-.2.27-.34.55-.23.38-.26.34.06-.17.12-.26-.05-.2-.09-.39-.23-.18-.23-.18"/>
    <polygon class="cls-411" points="16.85 37.62 17.01 37.21 17.5 37.23 17.99 37.34 18.16 37.61 18.08 38.05 17.93 38.35 17.7 38.17 17.37 37.81 16.85 37.62"/>
    <path class="cls-44" d="M17.67,38.05s.22.18.41,0l-.05.17-.03.14s-.02.13-.02.25-.02.36-.02.36h-.02v-.3s-.07-.19-.07-.19l-.1-.19-.11-.24Z"/>
    <path class="cls-296" d="M16.71,37.45s-.35.2-.17.48.23.03.41-.05.46.1.56.21.34.23.38.56.04.33.04.33c0,0,.11-.31-.17-.76s-.39-.57-.66-.57.12-.52.12-.52l-.51.33Z"/>
    <path class="cls-67" d="M10.65,44.84s.1,2.43-.16,3.13-1.06,1.86-2.65,2.29c0,0,1.61-.29,2.38-1.6,0,0-.11,1.25-2.38,1.92,0,0,2.45-.27,2.83-2.4s-.02-3.35-.02-3.35Z"/>
    <path class="cls-208" d="M10.22,43.15s.4-1.59.22-2.09-.33.64-.65.36-.34-1.1-.29-1.38.29-.7-.12-1.06-.83,0-.83,0v1.22l.15,1.42.7,1.15.82.38Z"/>
    <path class="cls-341" d="M12.78,41.9s.84.35.99-.48.57-.62.34-.91-.35-.37-.46-.61-.11-.62-.11-.62h-1.04l-.7-.3-.3.34v.97l.51.81.76.8Z"/>
    <path class="cls-318" d="M9.62,37.87s-.02,1.07.17,1.79.59,2.43,1.04,2.3.38-.32.75,0,.36,1.53,1,.8.42-1.48-.06-1.99-1.48-1.48-1.48-1.48l-1.43-1.43Z"/>
    <path class="cls-60" d="M8.17,43.83s.89.93,2.45,1.19c0,0,.36-.31.14-1.19s-.77-1.19-1.26-2.03-.03-.87,0-1.76c0,0-.59.6-.59.08s-.25-.75-.25-.75c0,0,.25.42.36,0s.5-.16.32-.54.29-.96.29-.96l-.27-3.7-.96-.14-1.92,2.6-.78,2.54.27,2.71,1.29,3.15.92-1.19Z"/>
    <path class="cls-114" d="M5.16,40.45s.57,6.24,1.21,8.1,1.57,2.73,1.57,2.73c0,0-1.15-1.99-1.39-3.22,0,0,1.21,1.78,1.61,2.21s2.19,2.43,2.19,2.43c0,0-2.5-3.49-2.79-4.95l-.29-1.47s1.25,3.41,1.86,4.3c0,0-1.01-2.74-1.03-3.86,0,0,.5,2.05,1.1,2.79,0,0-.57-1.4-.57-2.18s-.47-3.49-.47-3.49c0,0-1.48-.98-1.6-3.11s-1.41-.26-1.41-.26Z"/>
    <path class="cls-6" d="M5.1,40.2s.12,1.1,1.47,1.21c0,0,.03-1.11,0-2.54s-1.58-.32-1.47,1.32Z"/>
    <path class="cls-266" d="M5.1,40.2s2.95-1.67,4.18-7.13,1.07-8.66,1.07-8.66l-2.88-.4-3.49,5.04.88,5.53-.1.82s-.67,2.88.34,4.8Z"/>
    <path class="cls-124" d="M3.13,29.42s-.15,3.15,0,4.24.74,2.2.74,2.2c0,0,.36-1.37.65-.76s.51.26.9-.42,1.58-4.34,1.15-5.77-1.9-.58-3.44.51Z"/>
    <path class="cls-375" d="M3.61,32.56s-.22,5.21.27,6.61c0,0,.37,1.81,1.04,2.06,0,0,.08-.28-.42-.94s-.19-2.44-.26-2.69-.21-3.81-.63-5.05Z"/>
    <path class="cls-252" d="M3.28,26.98l.22-3.98,2.41-1.1,2.3.89s.29,1.9-.39,3.78-2.04,3.58-2.04,3.58l-1.46-.5-.32-.83-.5.5-.22-2.34Z"/>
    <path class="cls-366" d="M3.13,30.15l.37,1.3.48-2.4.28,3.74.26-1.87.22,2.73.31-1.71.37,1.64s.79-1.69.96-2.51-1.04-1.85-1.04-1.85l-.57-2.21-.25,2.4-.52-.84-.28.38-.43-1.98-.15,3.18Z"/>
    <path class="cls-130" d="M4.81,25.82s-.84.56-.45,1.67.49,2.94.93,2.72-.16,1.38.62,1.31.66-2.2.66-2.62-.5.64-.5.64c0,0,.49-2.83-.65-4.32,0,0,.22,3.33,0,2.73s-.61-2.12-.61-2.12Z"/>
    <path class="cls-242" d="M3.71,20.36s-.21,2.34-.21,2.64.46,1.82.47,1.3.55.34.55.34l.18-1.45.3,1.95s.06-3.2.42-2.39.94,2.48.93,3,.53-1.78.8-1.11,1.17-2.19,1.17-2.19l-2.25-4.88-1.82,1.35-.53,1.43Z"/>
    <path class="cls-121" d="M4.51,17.95s-1.02.8-.76,3.04l.58,1.13s.13-2.52.44-1.39.6.62.6.62c0,0,.32.87.69,1.78s.76,1.29.84.67,1.34.9,1.95,3.26,3.52.15,3.52.15l-2.76-8.48-2.05-2.63-1.51.22-1.55,1.64Z"/>
    <path class="cls-126" d="M17.97,37.87s.06.12-.22.01-.17-.29-.38-.35.49-.26.49-.26l.3.32-.2.27Z"/>
    <path class="cls-100" d="M17.37,37.41s.21-.03.32.07.11.17.34.23.19-.75.19-.75l-.85.13v.31Z"/>
    <path class="cls-33" d="M18.03,38.13s-.19-.48-.04-.79.59-.55.98-.47.03.61.03.61l-.44.08-.31.21-.13.19-.1.17Z"/>
    <path class="cls-279" d="M18.97,37.48s.26,0,.29.07.09.1.09,0,0-.16-.09-.23-.24-.07-.24-.07l-.11.2.06.03Z"/>
    <path class="cls-90" d="M18.26,37.77s-.12.15-.18.1.07-.18.18-.29.13-.17.24-.17-.09.12-.24.36Z"/>
    <path class="cls-409" d="M19.03,37.45s-.09,0,.03-.1.04-.18-.14-.16-.43.13-.2.2.01.13.31.07Z"/>
    <path class="cls-120" d="M17.97,38.65s0-.46.29-.78.54-.35.85-.34.11-.14-.43-.05-.74.69-.71,1.17Z"/>
    <path class="cls-2" d="M18.64,36.96s-.13.16.15.21.46.08.69.28.33.51.6.03.32-.65.11-.85-1.3-.07-1.3-.07l-.25.4Z"/>
    <path class="cls-305" d="M20.04,37.7s-.16.46-.18.84.01-.31-.32-.84-.7-.38-.7-.38c0,0-.49-.1-.12-.2s.91.36.98.46.17.1.34-.33,0,.47,0,.47Z"/>
    <path class="cls-53" d="M20.04,37.7s-.31-.46.04-.78,1.09,0,1.09,0l-.48.49s-.42-.3-.65.3Z"/>
    <path class="cls-350" d="M19.74,36.86s.07,0,.35.13.53.08.8,0,.22.27.22.27l.52-.4-.56-1.02-1.26.43-.07.59Z"/>
    <path class="cls-302" d="M21.17,36.91s-.55.3-.55.44.21-.12.39.38.22.81.22.81c0,0,.19-.4.27-.56s0-1.2,0-1.2l-.33.13Z"/>
    <path class="cls-135" d="M19.36,36.85s.42.08.69-.07.63-.26.82-.18.29.11.31.45.33.64.6.12.1-1.27.1-1.27l-1.93.04-1,.54.4.38Z"/>
    <path class="cls-141" d="M20.32,36.63s.29-.17.55-.03.01.15-.31.18-.4-.08-.23-.15Z"/>
    <path class="cls-228" d="M22.66,38.46s.09-.46-.21-.96-.74.02-.96.48-.21-.68-.21-.99.28-.77.14-1.29,1.8.68,1.8.68l-.1,1.09-.47.98Z"/>
    <path class="cls-229" d="M21.35,36.78s-.08.42,0,.75.33.1.58-.07.42-.09.53.05.29-.38.12-.69-1.03-.45-1.22-.04Z"/>
    <path class="cls-173" d="M21.64,36.54s-.3.12-.18.45.13-.22.55-.16.5.48.54.28.13-.66-.91-.58Z"/>
    <path class="cls-167" d="M22.81,37.91l-.15.55s.3-.46.56-.58c0,0,.11-.05.33.24s.63-.21.63-.21c0,0-.16-.5-.43-.79s-.51-.45-.51-.45l-.33.96-.09.28Z"/>
    <path class="cls-298" d="M23.55,38.12s.19.23.15.5c0,0,.16-.46.58-.53s-.13-.25-.13-.25c0,0-.08.24-.6.28Z"/>
    <path class="cls-399" d="M24.55,38.46s.36-.2.7-.53-.86-.57-.86-.57l-.12.73s.4,0,.27.37Z"/>
    <path class="cls-65" d="M21.34,36.45s.91-.06,1.23.13.09.99.09,1.22.42.14.54-.11-.02-.74.38-.78.71.34.8.22-.37-.23-.64-.39-1.22-.21-1.54-.66-.97.06-.97.06l.12.3Z"/>
    <path class="cls-183" d="M22.07,36.43s.72-.14.83.34-.19.66,0,.91.24-.57.37-.8.48-.15.48-.15c0,0-.7-.52-1.68-.3Z"/>
    <path class="cls-337" d="M24.61,37.91s.29.22.43.15.39-.25.47-.36,0-.9,0-.9l-1.12-.07-.54.31.29.48.46.38Z"/>
    <path class="cls-41" d="M23.88,37.75s-.16.53-.04.46.36-.14.56-.12.05-.21.36-.23.35-.22.17-.33-.49-.16-.65-.39-.57-.54-.57-.54l-.03.52.2.64Z"/>
    <path class="cls-271" d="M25.6,37.59s-.16.27-.26.19.11-.33-.2-.43-.59-.3-.83-.36.74-.69.74-.69l.6.66-.06.63Z"/>
    <path class="cls-263" d="M23.35,37.06s.37.28.46.58.38.12.22-.29-.13-.7-.51-.63-.17.34-.17.34Z"/>
    <path class="cls-400" d="M24.93,37.12s.49.68.67.47.24-.23.26-.42.09-.67.09-.67l-1.72-.57-2.03.26.79.32,1.25.23.69.39Z"/>
    <path class="cls-270" d="M25.14,37.12s.17.08.42,0,.13.17-.05.22-.37-.23-.37-.23Z"/>
    <path class="cls-254" d="M23.51,36.71s.8.42.97.34.48.22.45.07-.32-.43-.96-.58-1.9-.36-1.9-.36l.13.17.75.32.57.04Z"/>
    <path class="cls-95" d="M19.19,36.96s.8-.46,1.35-.48.78.18.95-.24-1.34-.59-1.34-.59l-1.25,1.09.3.22Z"/>
    <path class="cls-177" d="M14.7,37.42l.34.47.31-.23.42-.23.49-.1.17.05s.2.18.82.04,1.26-.5,1.26-.5l.29-.18-.97-.16-1.01-.04-1.83.72-.28.16Z"/>
    <path class="cls-193" d="M17.69,37.34s.2-.04.3,0,.02-.15.54-.22.66-.16.66-.16c0,0,.33-.19.38-.33s.2-.03.41-.08.44-.15.82-.16.9-.36.9-.36l-2.35-.03-.57.74-.5.29-.74.26.14.06Z"/>
    <path class="cls-176" d="M45.66,32.87s.03.86.35,1.72.67,1.87.67,1.87c0,0-.73-1.43-1.17-1.68s-.51,1.4-.51,1.4l-1.21-.97.27-3.07.93-.7.68,1.43Z"/>
    <polygon class="cls-359" points="45.66 32.87 46.01 30.42 44.55 30 44.55 31.58 45.66 32.87"/>
    <polygon class="cls-215" points="41.29 37.38 44.04 37.12 44.55 34.11 43.74 32.21 41.84 32.97 41.1 35.21 41.29 37.38"/>
    <polygon class="cls-62" points="44.55 32.63 45.3 31.55 44.6 27.73 43.48 25.44 42.82 26.69 41.71 30.65 43.73 33.01 44.55 32.63"/>
    <path class="cls-240" d="M45.23,31.83s.07.66-.09,1.5-.69,3.98-.69,3.98l-.5,3.52-3.35-.23.13-3.14.98-1.78s.14,1.43.54.91.23.85.88-.26.54.65.73,0-.25-3-.37-2.91-1.58-1.27-1.58-1.27l1.41-.85s.72-.8.62-1.36.44.26.53,1.28.51.23.51.23l.25.39Z"/>
    <path class="cls-198" d="M32.01,40.66s-.5-1.89-.65-2.71-.12-1.18.74-1.36,2.88-.41,2.88-.41c0,0,.66,2.64.28,3.7s-1.06,2.34-1.51,2,.42-1.44-1.75-1.22Z"/>
    <path class="cls-344" d="M34.66,38.15s-1.37,1.63-1.89,1.26,0-.87-.05-1.26-.45-.81.13-.77,1.53-.12,1.97-.25-.16,1.02-.16,1.02Z"/>
    <path class="cls-259" d="M31.41,36.63s1.73.51,2.54,0,3.29-4.59,3.29-4.59l-.34-3.1-2.01-.06-3.66,4.13.19,3.62Z"/>
    <path class="cls-71" d="M35.83,29.81s-.68.18-.55.83.61.39.55,1.5,1.38.99,1.38.99l.17-2.29-.48-1.9-1.07.87Z"/>
    <path class="cls-320" d="M33.62,35.54s-.31-1.24.35-1.62.95-.35,1.11-.91.35-1.06.86-1.06.26.07.49-.25.01-1.51.01-1.51l1.07-.19.62,3.08-1.78,2.67-2.72-.21Z"/>
    <polygon class="cls-384" points="36.59 37.89 37.55 39.97 38.94 37.89 37.56 35.68 36.43 36.99 36.59 37.89"/>
    <path class="cls-119" d="M36.47,38.59s.22,1.7.1,1.95-.58,1.04.33,1.74,2.15-2.89,2.15-2.89c0,0-1.63.6-1.76-.47s-.6-1.55-.6-1.55l-.21,1.21Z"/>
    <polygon class="cls-405" points="37 34.19 37.74 35.46 38.57 33.41 37.5 33.01 37 34.19"/>
    <path class="cls-268" d="M37,37.58l.95-.83s.17-1.96-.95-2.56-1.36,2.28-1.36,2.28l1.36,1.11Z"/>
    <path class="cls-128" d="M33.62,35.54s.81-1.39,1.21-1.35,1.46.25,1.41-.52-.57-.78-.36-1.25.54-.72.54-.72c0,0,.77.29,1.01,1s-.27,1.73-.27,1.73c0,0-.85-.14-.93.7s.43,2.07.91,2.11-.04.62-.64,1.74-.69,2.55-1.15,3.15-1.58-.59-1.08-1.52.42-2.56,0-3.15-.23-.86-.46-1.27-.2-.65-.2-.65Z"/>
    <path class="cls-401" d="M41.13,38.76s.28.59.9-.69,1.01-4.15,1.01-4.15c0,0,.29,1.73-.3,3.63s-1.13,3.04-.4,2.41,1.7-4.29,1.7-4.29c0,0-.13,1.79-.42,2.96s-.1,3.89-.1,3.89l-2.77.33-2.41-1.27,2.41-5.48.55.79.18.56-.34,1.31Z"/>
    <path class="cls-189" d="M42.67,33.94s-.49,1.38-.5,2-1.04,2.82-1.04,2.82c0,0,.42-1.27-.39-1.31s0-2.88,0-2.88l1.71-2.46.87-.82-.65,2.65Z"/>
    <path class="cls-93" d="M42.13,33.92s.57-.74.84-1.78.35-2.31.35-2.82-.72-3.34-.72-3.34l-.9-.55-.96,1.46.44,4.73.8,1.63.15.67Z"/>
    <path class="cls-331" d="M42.25,30.19l.09.68.1,1.24-.1.96s-.19.4-.19.71-.57,1.43-.57,1.43c0,0,.19-1.66.05-2.28s.66-1.51.62-2.74Z"/>
    <polygon class="cls-165" points="42.25 27.1 41.38 24.49 41.1 21.75 42.44 22.79 42.9 26.07 42.9 27.23 42.25 27.1"/>
    <path class="cls-217" d="M42.25,27.1s.3,1.9.3,2.35.05,1.62.05,1.62h.3l-.09-2.12v-2.25s-.56.41-.56.41Z"/>
    <path class="cls-319" d="M42.5,30.32l-.16.55v2.2s.33-1.47.16-2.75Z"/>
    <path class="cls-404" d="M43.51,26.61s.3,1.24.27,1.84.12,1.19.18,1.62-.03,1.58,0,2.34.23,1.63-.18,2.8c0,0,.2-1.04,0-1.96s-.22-1.59-.09-2.24.13-1.69.05-1.84-.51-.66-.51-.66l-.64-3.07,1.05.62-.14.56Z"/>
    <polygon class="cls-407" points="25.61 26.44 27.12 26.37 26.21 25.63 25.73 26.08 25.61 26.44"/>
    <path class="cls-258" d="M45.45,32.14s-.04-1.01.1-1.38.36.29.45-.34-.56-1.05-.56-1.05l-.19-1.65-.53.61.2,1.45.1,1.52.22.69.21.15Z"/>
    <path class="cls-383" d="M44.13,27.44s.69,1.74.69,2.88,0,2.14,0,2.14l.18-.84.25.37s-.17-2.12-.25-2.62.16-1.37.2-1.3.01.88.04,1.47.21,1.24.21,1.24l.37-.09-.17-1.39-.18-1.19-.51-1.48-.99-.44.14,1.32"/>
    <path class="cls-382" d="M42.61,21.11s1.42,1.3,1.94,2.95.76,3.46.76,3.46l-1.16-1.83-1.96-2.55.43-2.03Z"/>
    <path class="cls-52" d="M40.9,17.37s.08,1.26.82,2.34,1.71,2.5,1.8,4.11-4.99-3.39-4.99-3.39l2.38-3.06Z"/>
    <path class="cls-273" d="M44.98,26.96s.41,1.11.41,1.71.06.85.06.85c0,0,.4.22.56.89,0,0,.2-.46-.15-.94s.42-.41-.88-2.51Z"/>
    <path class="cls-171" d="M43.78,27.69s.04.31.2.87.33.65.33.65c0,0-.17-1.07-.53-1.52Z"/>
    <path class="cls-325" d="M43.88,24.38s1,2.09,1.1,2.59-.6-.35-.39.77-.64-.64-.64-.64l-1.28-1.34-.69-2.38h.89l1.02,1Z"/>
    <polygon class="cls-32" points="35.47 29.21 36.81 30 38.18 27.77 35.78 24.72 34.8 25.38 34.66 28.2 35.47 29.21"/>
    <polygon class="cls-267" points="35.36 26.4 36.37 30.05 34.66 29.29 34.57 25.98 35.36 26.4"/>
    <path class="cls-48" d="M37.17,31.76s-.08-.86-.59-1.52,1.87-2.24,1.87-2.24l.28,2.24-.41,1.52-.65.38-.5-.38Z"/>
    <polygon class="cls-371" points="39.05 36.58 39.63 36.81 41 35.03 41.38 32.6 40.91 31.07 39.77 32.02 38.95 35.05 39.05 36.58"/>
    <path class="cls-12" d="M40.49,33.07s.31-.36.31,0-.24.84-.49,1.52-.55,1.58-1.08,2.1-1.31,1.07-2.07.55-.07-2.22.42-2.67.42-1.64.42-1.64l1.57-3.88,1.74,2.2-.68.61-.08.61-.03.61Z"/>
    <path class="cls-148" d="M40.6,32.71s.07.65-.43,1.15-1.14.93-1.22.58.42-.82.76-.96.72-1.27.72-1.27l.16.5Z"/>
    <polygon class="cls-381" points="39.39 30.37 39.82 29.72 38.33 29.21 38.09 30.05 38.45 30.78 39.39 30.37"/>
    <path class="cls-174" d="M37.17,31.55s.12,2.43,0,2.87.43-.07.41-.51.76-1.07.76-1.07l-.17-.97s-.46.13-.99-.33Z"/>
    <path class="cls-153" d="M37.56,34.2s-.19-.31.11-.79.42-.69.27-1.06-.4-.54-.4-.54c0,0,.32-.38.4-.97s.79.19.79.19l-.59,1.76-.58,1.41Z"/>
    <path class="cls-277" d="M38.45,30.25s1.09-.1,1.06.33-.19.45-.15.94.96,1.25.08,1.57-.93-.12-1.29.57-.69.61-.58.25.37-.31.42-1.13.3-.95.24-1.79.22-.76.22-.76Z"/>
    <path class="cls-306" d="M37.69,31.33s.65-.81.64-.51.2,1.85.18,2.34,0,.73.05.26,0-1.3,0-2.04.14-1.2-.11-1.25-.08-1.07-.08-1.07l-.35,1.21-.34,1.06Z"/>
    <path class="cls-80" d="M37.99,32.8s-.08.63-.31.77-.11.81.15.22.49-.65.49-.65l-.38.21.04-.56Z"/>
    <path class="cls-20" d="M40.5,31.56s-.02,1.16-.44,1.7-.05.87.35,0,.31-2.12.31-2.12l-.23.42Z"/>
    <path class="cls-284" d="M39.71,30.05s-.43-.02-1.13-.59-.78-.37-1.16.19-.68,1.23-1.25,1.1-.71-.29-.22-.99.64-.97.64-.97l.64-2.41,1.59.73.89,2.95Z"/>
    <path class="cls-14" d="M38.17,28.7s-.46,2.35-.48,2.63.45-.88.57-1.49.28.11.46-.22.5-.83.5-.83c0,0-.61-1.41-1.05-.09Z"/>
    <path class="cls-319" d="M36.59,28.78l-.98-3.83-1.21-1.61,1.1-.35,3.03.13,1.27,2.75.37,2.56s.99.8,1.55,2.21-.36,4.89-.36,4.89c0,0-2.82,6.61-1.49,6.14s2.29-3.96,2.29-3.96c0,0-1.89,4.78-.92,4.21s1.56-2.25,1.56-2.25c0,0-.04,2.53.2,1.86s1.81-6.75,1.81-6.75l.66-.08s.94,3.05,2.42,3.43c0,0-.92.18-1.99-1.2,0,0,.3,2.76,1.99,3.01,0,0-1.42-.38-2.12-1.17,0,0,.34.97.97,1.36,0,0-.75-.55-.81-.18s-.28,2.1,1.5,2.48c0,0,1.53.85.05.65s.54.88.54.88c0,0-1.01-.76-1.7-.74s.44.54.54,1.44.87.68.87.68c0,0-.31.48.3.58s-.16.09-.16.38-1.39,1.14-1.39,1.4.89,1.02,1.89.35.07.29.91.27.11.48.11.48c0,0,.3.31.96.15s.12.83-2.13.54-2.6-1.89-3.2-1.04-.16,1.87.26,1.88c0,0-.15.54.23.76,0,0-1.01-.37-2.11-1.15s-1.84-.65-1.31.06,1.25,2.04,2.22,2.31c0,0,.72.53-.67-.06s-2.02-1.38-2.56-2.31-1.04-2.83-1.41-1.57-.61,1.5-1.1-.73c-.5-2.23-.84,1.64-.84,1.64,0,0-.65-1.96-.57-3.95s.09-1.99.09-1.99c0,0-.36,2.3-.39.81s.08-2.61.31-3.95.68-1.54.77-2.71c0,0,1.51-.44,2.34-2.21s.94-2.66.21-3.7-1.02-1.9-1.49-2.52-.84-1.53-.98-1.27-.47-.74-.47-.74c0,0,.04,1.26-.96,1.77Z"/>
    <path class="cls-275" d="M37.55,24.41s1.36,1.58,1.76,2.48,1.05,2.71,1.58,2.81.82-1.55.82-1.55l-1.78-5.04-1.64-.87-.61.87-.14,1.29Z"/>
    <path class="cls-334" d="M35.93,23s.58,1.91,1.76,1.42.76-2.95.76-2.95l-5.6-6.11-3.31.87-.08,3.38,2.98,2.64,3.49.76Z"/>
    <path class="cls-370" d="M35.45,24.57s.66-.18.58-1.22-2.45-3.08-3.17-3.17-.75-.58-.75-.58l-.88-1.55-.63.83,1.96,5.19,1.46,1.55,1.44-1.04Z"/>
    <path class="cls-349" d="M41.29,21.89s1.06,3.11,1.25,4.48.27,2.57.27,2.57c0,0,.33-.56.33.35s-.11,2.6-.29,3.07-.22,2.38-.22,2.38l.33-.54s.55-2.28.54-3.96-.78-5.44-.78-5.44l-.16-2.35-1.37-2.31-.62-.96-.42.49,1.13,2.21Z"/>
    <path class="cls-179" d="M40.98,19.3s.83,1.66,1.42,2.54,1.86,2.74,1.48,2.54-.9-.34-.93-.08-.22.51-.22.51c0,0-.69-3.92-2.17-5.18s.41-.33.41-.33Z"/>
    <path class="cls-180" d="M40.8,19.62s.3.93.66,1.57.67,1.72.63,1.93-1.11-1.44-1.11-1.44l-1.19-2.19,1,.13Z"/>
    <path class="cls-137" d="M40.71,26.4s1.1.93,1.13.17-.86-5.11-.86-5.11l-.4-1.23.21-.61-.74-2.6-2.37-4.36-1.06-1.36-1.38,2.16-1.54,3.46,5.06,5.53,1.94,3.95Z"/>
    <path class="cls-338" d="M40.73,25.31s-.62-2.24-2.68-4.9-1.38-4.73,0-3,2.29,2.68,2.29,2.68l-1.19-2.78-1.47-2.51-2.64-2.59-5.37-1.41-2.94,1.15,1.86,4.44,2.91.72,4.15,3.55s1.25,1.31,2.38,2.34,1.17,2.25,1.17,2.25l1.14,1.65.97,3.15s.64-1.3.43-2.6-1.02-2.15-1.02-2.15Z"/>
    <path class="cls-385" d="M39.22,26.51s.51.25.83,1.12.75,1.31.75,1.31c0,0,.32-.82-.22-1.78s-1.36-1.91-1.36-1.91c0,0,1.19,1.73,1.2,2.24,0,0-.65-.95-1.2-.99Z"/>
    <path class="cls-221" d="M34.61,24.33s.41.17.37-.16.19.24.31,0,.19.25.48.55-.13.41-.13.73.13,2.17-.03,1.6-.89-1.08-.89-1.08l-.65-1.34.53-.31Z"/>
    <path class="cls-360" d="M34.65,25.25s.15-1.26-.68-3-2.09-1.51-2.38-3.19-.7-2.08-.7-2.08l-1.86-.06-.05,3.92,5.66,4.4Z"/>
    <path class="cls-77" d="M41.36,25.75s.55.66.55,1.15c0,0,0-3.73-.92-5.91-.92-2.18-1.79-4.41-3.29-6.18,0,0,2.21,4.14,2.66,5.29s1.09,3.62,1.01,5.65Z"/>
    <path class="cls-391" d="M21.21,36.28s-.82-.03-1.06,0-.79.11-.8.31-.65.36-1.09.53-.67.33-1.25.29.73-.27,1.33-.5-1.34.35-1.48.2.57-.69.57-.69l3.09-.89.85.46-.17.29Z"/>
    <path class="cls-322" d="M20.32,35.78s-.08.54,1.61.54,2.51.24,2.72.42.77.33,1.01.22.29-.69.29-.69l-.91-.54-3.85-.95-.86,1Z"/>
    <polygon class="cls-24" points="16.36 36.74 18.16 36.47 20.23 35.41 18.28 35.24 16.29 35.49 16.36 36.74"/>
    <path class="cls-219" d="M16.43,36.96s.94-.78.94-1.18.14.5.46.07.36.43.83.14,2.35-.66,2.35-.66c0,0-.53.5-1.16.82s-2.35.76-3.42.82Z"/>
    <path class="cls-340" d="M18.16,35.42s-.11.29,2.16.36,2.33.01,3.42.31,1.44.48,1.67,0-4.22-2.24-4.22-2.24l-2.44.67-.58.9Z"/>
    <path class="cls-247" d="M19.05,35.05s.47.15.88.08.66-.19,1.02-.03,2.84.44,2.84.44l-3.66-1.34-1.72.65.63.21Z"/>
    <path class="cls-203" d="M15.14,37.48s.61-.35.97-.36.9.02.62-.16-1.59-.33-1.59-.33l-1.19.43-.64,1.2.36.67.39-.89.69-.31.4-.24Z"/>
    <path class="cls-30" d="M13.79,39.55s.17-.12.18-.61,0-.82.34-.95.52.04.78-.18.25-.21.14-.33-.26-.16-.26-.16c0,0,.18.22-.19.29s-.78.13-.96.68-.48-.33-.48-.33l-.57.83.05.53.96.23Z"/>
    <path class="cls-261" d="M13.13,40.2s-.12-.33.22-.46.1.29.4.36.03-.13.04-.41-.01-.36-.16-.42-.45-.31-.8.05.12.85.3.88Z"/>
    <path class="cls-73" d="M16.43,37.37s-.36.03-.54.2-.29-.07-.55.1-.58.47-.58.66-.14.23-.08.5.16.69.07.66-.54-.03-.42-.39.3-.32.31-.54-.15-.19,0-.46.31-.23.45-.28.24-.27.51-.39.65-.22.82-.05Z"/>
    <path class="cls-111" d="M15.24,37.76s-.16.77-.16.93-.27.21-.3,0-.05-.4.06-.6.4-.34.4-.34Z"/>
    <path class="cls-220" d="M15.18,37.11s1.41.12,1.71-.44-.45-.57.28-.96.9-.25,1.2-.15.74-.4,1.06-.79-3.46-.09-3.46-.09l-2.35,1.06,1.55,1.36Z"/>
    <path class="cls-10" d="M26.43,38.06s.33.1.27.88.24,1.65.85.39l.61-1.26s.19,1.11.27.55l.08-.56s.5.74.42.31-.08-.37.12-1.08.4,1.09,1.11.13.72-1.62.68-1.9.58,1.12.58,1.12c0,0-.03-.49.46-.85s.31-1.04.31-1.04c0,0,.36.69.83.11s.11-1.46.11-1.46c0,0,.6.29.74.13s.09-1.1.92-2.88-2.71-2.21-2.71-2.21l-4.65,6.19-.75,1.75-.24,1.69Z"/>
    <path class="cls-272" d="M26.7,38.06s-.39.16-.46.56c0,0,.03-.65-.12-.96s-.04-.51-.04-.51l-.18-.3-.15-.29-.28-.22-.17-.71,1.36.15v.59s-.12.54-.12.54l-.13.64.29.5Z"/>
    <path class="cls-151" d="M25.51,36.4s.33.24.31.51,0,.37,0,.37c0,0,.05-.29.15-.2s.17.12.21,0-.32.06-.04-.49.05-.38.05-.38c0,0-.31.46-.68.19Z"/>
    <path class="cls-47" d="M16.03,35.76s.21-.06.26-.28.46-.22.6-.16.25-.11.74-.19,1.56-.29,1.56-.29h-3.83l-.46.76.44.36.7-.21Z"/>
    <path class="cls-152" d="M13.57,38.88s-.35-.39.06-1.24,1.74-2.22,2.25-1.98-.21.26-.33.67.25.49-.37.78-.66-.08-1.07.52-.54,1.25-.54,1.25Z"/>
    <polygon class="cls-79" points="22.36 34.51 24.61 34.74 25.82 33.95 24.61 33.45 22.55 33.08 21.88 33.39 22.36 34.51"/>
    <path class="cls-387" d="M24.02,34.47s.7-.06.98-.28.83-.4.83-.4l1.22.46.58,1.53-.21.35-.41.33-.58-.77-2.09-.6-.31-.63Z"/>
    <path class="cls-87" d="M24.76,35.93s.64.65.93.52.07-.36-.08-.52-.85-.83-.85-.83v.83Z"/>
    <path class="cls-39" d="M17.01,35.19s1.64-.39,3.89-.2,3.58,1.04,3.86.93-.1-.98-.75-1.2-1.54-.59-1.6-1.55-3.67-.7-3.67-.7l-1.99,1.26.26,1.46Z"/>
    <path class="cls-22" d="M19.28,34.62s.12-.17-.04-.37-.26-.19-.27-.46.47-.41.47-.41c0,0-.4.37-.28.55s.89.37.89.37l-.07.31h-.7Z"/>
    <path class="cls-22" d="M18.97,34.81s.64-.45,1.08-.5.56-.08.84.2.64.27.64.27v.2s.39.17.46-.11.15-.43.15-.43c0,0,.2.5-.12.58s-.28.1-.9,0-1.28-.08-2.15-.21Z"/>
    <path class="cls-288" d="M22.48,33.79s.07.74.47.51.55-.36.55-.36c0,0,.18.62,1.03.64s1.71-.21,2.2.55.56,1.21.23,1.69-.44.83-.26,1.24c0,0-.49-.18-.36-.93s.52-1.11-.19-1.27-1.25-.06-1.96-.3-1.71-.54-1.79-.89.01-.66.08-.87Z"/>
    <path class="cls-291" d="M20.05,34.14s.49,0,.61-.29.04-.27.04-.27l.48.51s-.07.33-.52.3-.55.06-.55.06l.19-.16-.24-.14Z"/>
    <path class="cls-278" d="M17.83,33.87s.02-.17.3-.17.45.24.12.46-1.33.42-1.33.42h-.55l-.07-.44.65-.38.89.11Z"/>
    <path class="cls-112" d="M17.01,35.19s.17-.2.54-.25.86-.02.95-.27-.18-.64-.77-.62-1.37.45-1.37.45l.65.7Z"/>
    <path class="cls-310" d="M16.86,34.25s-.23.17,0,.42.41.15.5-.06.09-.28.28-.28.45-.08.3-.21-.78-.14-1.08.13Z"/>
    <polygon class="cls-379" points="15.51 35.33 16.47 35.19 17.01 35.19 16.34 34.67 14.78 34.18 12.95 35.99 12.95 37.81 14.04 36.78 15.51 35.33"/>
    <path class="cls-22" d="M12.99,39.54s-.07-.39.3-.98.72-1.37,1.1-1.77.95-1.2,1.63-1.42,1-.17,1-.17c0,0-.62-.06-1.27-.11-.53-.04-.49-.52-.84-.39s-.84.64-.99,1.02-.27,1-.57.96-1.07.83-1.07.83v1.02l.08,1.34.67.43-.04-.75Z"/>
    <path class="cls-92" d="M12.44,37.68s-.21,1.42.04,1.03.44-.79.44-.79c0,0-.11.27-.11.65s-.16.47-.17.77.18.93.28.53.07-.34.07-.34c0,0,.03.69.27.81s.67.24.67.24c0,0-.69-.13-.75-.03s-.02.97-.27.57.04-.68-.32-.89-.65-.39-.78-.92-.23-1.12-.23-1.12l.75-1.09.11.57Z"/>
    <path class="cls-164" d="M16.5,34.44s.28-.51.84-.47.8-.1.82-.59-.93-.42-.93-.42l-1.61.1.29.96.06.41h.52Z"/>
    <path class="cls-222" d="M16.29,34.41s.44-.14.36-.37-.52,0-.5-.28.41-.6.41-.6l-.89-.2-.64.76-.91.88.42.12.38-.23.27-.06,1.1-.03Z"/>
    <path class="cls-348" d="M12.01,37.96s.36-.42.43-.27,0,.65.35.27.35-.49.33-.81.31-.62.32-.85.93-1.43,1.39-1.67.56.05.99.25,1.2.32,1.2.32c0,0-.5-.87-.87-1.08s-2.27.87-2.27.87l-1.24,1.3-1.24,1.07.62.61Z"/>
    <path class="cls-8" d="M14.52,34.73s.31-.29.57-.45.73-.3.64-.97-1.97-.87-1.97-.87l-.56,1.3.49,1.13.82-.14Z"/>
    <path class="cls-264" d="M12.27,36.96s.75-.39,1.19-1.14.34-.66.34-.66l-.17.59s.36-.31.42-.55.08-.28.08-.28v.29s.38-.39.4-.49-.47.05-.55-.32-.17-.48.12-.72.03-.98.03-.98l-.76-.11-.72,1.5-.46,1.72.09,1.14Z"/>
    <polygon class="cls-61" points="11.54 39.69 11.98 36.3 13.01 34.19 13.34 33.08 14.32 31.88 15.55 28.66 11.05 30.15 9.88 30.81 9.62 34.65 10.5 37.76 11.54 39.69"/>
    <path class="cls-347" d="M11.79,39.41l.31-2.38s1.14-2.16,1.24-2.65.08-1.12.29-1.59.25-.85.25-.85c0,0-1.03.89-1.27,1.85s-.32,1.59-.63,2.04-.5.97-.56,1.87,0,1.79,0,1.79l.38-.07Z"/>
    <path class="cls-211" d="M10.64,31.07s-1.2,2.34.31,2,3.07-3.18,3.76-3.67,1.44.24,1.44.24l-1.52,2.91-.75-.61s-1,.53-1.7,1.45-1.5.84-1.33,3.14.88,2.16,1,3.13.34,1.73,0,1.76-1.4-1.76-1.65-2.32-.63-.89-.63-.89l-.65-2.74.33-2.08.42-2.31h.99Z"/>
    <path class="cls-236" d="M30.51,12.4s2.52-1.13,4.85.64l2.33,1.77-.89-2.85s3.59,6.31,3.77,7.68.49-.62.4-1.86-1.44-3.08-2.91-5.1-4.53-6.67-7.32-6.69-1.98,2.52-1.98,2.52l.18,2.99,1.58.92Z"/>
    <path class="cls-308" d="M30.51,13.46l3.84,3.09-1.5-.88s2.02,2.89,2.5,3.92,2.7,3.41,2.7,3.41c0,0-1.35-.81-1.1.65l-2.42-3.24s-.02.57-1.9-1.57.22.89.22.89l-1.21-1.18.46,1.03s-1.38-2.16-2.65-2.49-2.64-2.66-2.64-2.66l3.69-.98Z"/>
    <path class="cls-376" d="M28.63,14.34l1.27,2.21-.36-1.44.77.97-.12-.64,2.11,1.66-1.03-1.71-.42-1.05.6.57-.6-1.49s-1.99-1.51-3.12-1.47-.98,2.13-.98,2.13l1.87.26Z"/>
    <path class="cls-13" d="M28.75,15.29s.87,2.08,2.12,3.27l-1.06-.85s1.59,2.57,2.82,3.39l-1.94-1.46,1.61,2.19-1.79-.04-3.69-3.37.39-3.4,1.55.26Z"/>
    <path class="cls-139" d="M27.92,13.59s.34-.24.71.75.23,2.24.47,2.96c0,0-.01.29-.49-.91l.18.94-.65-1.37-.23,1.83.11,1.51-1.59-1.14-1.41-3.07,1.28-2.42,1.6.92Z"/>
    <path class="cls-187" d="M6.06,15.12s-1.55,1.07-1.55,2.83.53,2.13.53,2.13c0,0-.25-1.44.49-2.13,0,0-.35,1.49-.25,3.09s.01-1.3.78-1.28,2.27,5.09,2.31,6.44,1.74-.97,1.74-.97l2.61-7.65.31-3.44-3.05-1.1-2.32.38-1.6,1.71Z"/>
    <path class="cls-184" d="M8.54,14.42s-1.49.17-2.47.7c0,0,0-1.29.85-2.08s1.54-1.87,1.54-1.87l1.66-1.13,2.35.24.14,2.3-1.66,1.67-2.41.18Z"/>
    <path class="cls-354" d="M36.19,13.03s-1.2-3.61-2.77-4.97-5.85-4.5-6.84-4.53-2.69-1.4-4.9.26-4.02,2.87-4.02,2.87c0,0-1.39.25-1.61,1.34,0,0-1.94-.2-3.07,2.65s9.64,3.86,9.64,3.86l6.82-4.24,1.23-1.22,2.5.99.91.75,1.06,1.03,1.06,1.21Z"/>
    <path class="cls-308" d="M25.2,6.96s4.31.46,6.81,2.17,3.96,3.37,4.18,3.91-2.22-2.78-3.33-2.89-2.61-.12-2.61-.12l2.61.91s-2.52-.37-2.35,0,2.35.74,2.35.74c0,0-2.98-.03-2.96.27s4.5,2.39,4.5,2.39l-5.66-2.39s-2.1.52-.82,1.63-1.96-.16-1.96-.16l-4.09-3.63,3.34-2.83Z"/>
    <path class="cls-58" d="M22.71,9.13s1.39-2.2,2.48-2.17c0,0,.08,1.43,1.17,1.84s2.69.81,2.69.81l-2.24.75-1.42-.95.85,1.54-.79-.49-.06.71-1.52,1.35-4.29-.96,3.13-2.42Z"/>
    <path class="cls-281" d="M20.38,8.49s2.67-3.86,8.09-3.16c0,0-4.81-.14-6.58,5.83s-4.01,1.7-4.01,1.7l2.5-4.37Z"/>
    <path class="cls-281" d="M10.88,17.57s-2.3-1.47-3.3-1.49,3.66-.67,3.66-.67c0,0-1.62-1-2.7-1,0,0,2.16-.54,2.2-.89s-1.58-.31-2.73.31c0,0,.08-1.12,2.35-.98l-1.49-1.21-.4-.49s.51-1.1,2.78-.22c0,0,.15-1.14-1.12-.91,0,0,1.13-.95,2.76-.03l3.1,2.6-5.1,4.97Z"/>
    <path class="cls-308" d="M12.54,14.54s-.9-1.7-2.06-2.16c0,0,.57.05,1.32,0s-.7-.92-.7-1.11.54-.38,1.27.38-.19-.81-.19-.81c0,0,1.06.78,1.33.97s-.19-.78-.19-.78c0,0,.62.49.76.13s.73.39.73.39l.54-1.54s.46.76.46,0,.38-.3.38-.3l.81-1.27s-.27.76,0,.57,1.48-1.32,1.67-1.27,0,1.54,0,1.54c0,0,.76-2.4,1-2.65,0,0-.65,3-.74,3.86s.69-2.51,2.34-3.57,1.78-1.13,1.78-1.13c0,0-1.78,1.59-1.89,2.57,0,0,1.22-1.86,2.92-2.27,0,0-2.65,1.84-3.4,3.46s-.64,2.57-.64,2.57l-6.25,3.97-1.24-1.55Z"/>
    <path class="cls-377" d="M28.35,18.22s1.27,1.69,2.16,2.51c0,0-.45-.53-.73-.99s1.48,1.1,1.96,1.41c0,0-.77-.7-1.23-1.25,0,0,.96,1.02,2.01,1.66s.89,2.6.89,2.6h-2.52l-4.93-4.48,1.85-.34.55-1.13Z"/>
    <path class="cls-248" d="M26.81,14.45s.02-.94-1.1-1.89-3.55-1.97-6.13-1-3.01.2-3.56.4-.85,1.2-.85,1.2l8.19,1.75,3.45-.46Z"/>
    <path class="cls-355" d="M23.09,12.12s1.84.03,2.11.74.7,1.39,1.42,1.49-.27,1.5-.25,2.35c0,0,.41-1.53.84-1.66,0,0-.22.8-.22,1.49,0,0,.07-.99.45-1.34,0,0,.56-.23.31,1.09s0,2.5,0,2.5c0,0-.15-2.08.41-2.8,0,0,.08,1.94.29,2.61s-.54,2.41-.54,2.41l-5.53-.33-2.13-4.11,2.85-4.43Z"/>
    <path class="cls-297" d="M14.04,22.25l10.08-1.35s-2.76-2.26-1.69-3.6,2.47-.53,2.19-1.7-1.54-3.49-1.54-3.49c0,0-1.88-.45-4.16.11s-3.18.01-4.57.98-.64,5.77-.64,5.77l.34,3.27Z"/>
    <path class="cls-21" d="M9.3,25.38s-.2-1.98.4-4.27,1.43-5.34,2.84-6.57,2.7-2.01,3.44-1.55.29,1.62-.24,2.81.06,2.16.63,2.84-1.28,1.53-2.01,2.08.1,2.63.1,2.63l-3.5,2.09-1.65-.06Z"/>
    <polygon class="cls-133" points="32.6 33.92 34.78 30.65 34.99 27.26 33.68 24.3 30.63 23.65 29.54 24.04 30 30.54 32.6 33.92"/>
    <path class="cls-74" d="M32.3,24.91s2.15,1.13,2.29,2.86.19,2.88.19,2.88c0,0,.64-.49.57-2.88s-1.45-4.26-2.68-4.26-.37,1.4-.37,1.4Z"/>
    <path class="cls-86" d="M27.2,36.71l-.39,1.66s1.61-.7,1.92-2.25.23-1.34.23-1.34c0,0,.28.86.33.41s.08-.17.41-.42.81-.98.81-.98l.17.34,1.6-1.16-.99-3.65-1.35-1.93-4.4-.82.45,4.17,1.24,3.23-.18,1.03.13.55v.34s-.08.56-.08.56l-.03.28.1-.02Z"/>
    <path class="cls-294" d="M28.99,31.08s.56,3.04-1.79,4.11l-.33-.52-.57-.54s-.15.16-.82,0-6.33-6.27-6.33-6.27l5.76.46,4.06,2.76Z"/>
    <path class="cls-396" d="M31.15,28.81s1.41,1.05,1.85,2.93-1.66,4-1.85,3.5.36-1.87.28-3.05-.07-3.34-1.9-3.86-3.18-.61-3.18-.61l.61-1.74,3.08.23,1.1,2.6Z"/>
    <path class="cls-280" d="M27.26,26.76s1.42-.01,2.63.95,1.87,2.04,2.17.72-1.44-4.78-1.44-4.78l-3.13-1.39-2.13,2.9,1.89,1.61Z"/>
    <path class="cls-243" d="M31.71,24.75l-3.39-1.93-5.71-.22.83-1.26,5.87.22s1.68,2.4,2.13,1.94.47-1.08,1.04-.32.62,2.17-.77,1.57Z"/>
    <path class="cls-94" d="M28.23,21.8s.94,1.05,1.86,1.55,1.15.75.96,0-1.84-2.72-2.81-2.69,0,1.14,0,1.14Z"/>
    <path class="cls-35" d="M26.67,21.57s.56.14,1.26.16,2.57,1.45,2.57,1.45c0,0-.98-1.07-1.19-1.62s-1.21-1.24-2.64-1.15-2.18.69-2.18.69l2.18.46Z"/>
    <path class="cls-345" d="M10.73,23.79s-1.84,1.82-1.87,2.4.64,1.6.64,1.6l3.91-3.47-.44-.97-.59-.17-1.65.61Z"/>
    <path class="cls-168" d="M10.73,23.79s1.59-.72,1.65.51-2.57,1.64-2.92,2.04v.64s4.89-1.02,4.89-1.02l1.12-1.44-.06-2.13-2.4-.26-1.77.63-.5,1.04Z"/>
    <path class="cls-29" d="M12.44,25.52s1.67.22,2.36-1.11-.49-1.63-1.32-1.62-2.53.55-2.53.55l1.7-1.23,3.04.21.46,1.96-1.08,3.11-2.5-1.37-.13-.49Z"/>
    <path class="cls-395" d="M10.5,26.24s.98-.68,2.32-.75,1.73.29,2-.09.15-1.09.35-1.3.63.07.63.07l.24,2.3h-1.29l-1.66.86-2.55,1.05-.05-.76v-1.38Z"/>
    <path class="cls-351" d="M9.51,30.2s-.1-.47,0-1.11-.09-1.92-.05-2.12,1.1-.86,1.38-.83.4-.11.39.52-.14,1.65-.14,1.65l-.31,1.22-1.28.67Z"/>
    <path class="cls-386" d="M9.23,32.56s.27-1.27.24-2.02.89-1.81,1.17-2.42,1.79-1.33,2.5-1.45-.64-.44-.57-.65,1.73-.39,2.45-.17.97.21.95.81-.44,1.56-.44,1.56l-.9-.54-2.58,2.19-.87.67-.08.35-.85.57-.8.78-.11.32h-.08Z"/>
    <path class="cls-166" d="M9.56,38.2s-.47-2.08.56-2.75-.14-1.38-.48-1.4-.3-1.56.05-1.97,1.62-1.34,1.62-1.34l1.07-.54-.14-.87-.96.32s-.88.66-.64.89.34.24,0,.54-1.21.67-1.46,1.64-.34,1.65-.32,2.19.23,2.31.69,3.3Z"/>
    <path class="cls-15" d="M11.22,31.07s-.25.06-.13-.19.74-.45.76-.68.09-.73.39-.87.91-.11.91-.11l.33.42-.53.57-1.73.85Z"/>
    <path class="cls-140" d="M10.85,29.79l-.38.27s.17-.18.07-.19-.16-.04-.17-.08-.26-.03-.26-.03l.67-.23-.37-.05.27-.25.26-.33.23.27-.32.62Z"/>
    <path class="cls-169" d="M10.92,29.87s-.16-.09,0-.22.73-.69.73-.69l.58.28-.51.31-.81.32Z"/>
    <polygon class="cls-69" points="13.14 29.23 12.68 28.24 14.56 27.91 14.83 28.16 14.08 28.75 13.14 29.23"/>
    <path class="cls-42" d="M10.92,29.87l1.26-.78.89-.37,1.09-.24-.45.65s-1.16.43-1.73.52-1.06.22-1.06.22Z"/>
    <path class="cls-70" d="M13.45,29.83s-.65-.05-.68-.24.74-.54.94-.85.61-.41.68-.59.71-.39.71-.39l.59.21-.43,1.2-1.44.7-.37-.04Z"/>
    <path class="cls-393" d="M12,30.06s.74-.33,1.27-.77.95-.7.95-.7c0,0-.06-.09-.4.16s-.76.69-1.05.85-.91.5-.77.46Z"/>
    <path class="cls-265" d="M11.22,31.07s.04-.46.9-.72,1.28-1.01,1.58-1.03.62.09.62.09l-.28.46-.68.45-.72.36-.64.2-.78.2Z"/>
    <path class="cls-216" d="M13.92,29.87s.43-.42.71-.92.34-.86.35-.58-.02.79-.27,1.03-.79.47-.79.47Z"/>
    <path class="cls-290" d="M11.22,31.07s1.08-.2,1.5-.39,1.45-.76,1.73-1.04.35-.4.11-.25-.22.23-1.2.82-2.14.85-2.14.85Z"/>
    <path class="cls-406" d="M14.16,27.05s.74.08.96.27.46.28.4.45-.33.34-.56.33-1.17-.33-1.17-.33l.37-.72Z"/>
    <polygon class="cls-356" points="11.89 27.92 13.25 27.98 14.16 27.73 14.56 27.24 13.7 27.02 13.25 27.02 12.88 27.06 12.36 27.18 11.89 27.56 11.89 27.92"/>
    <path class="cls-82" d="M10.59,29.24l.63-.14,1.5-1.23s-.64,0-.68-.18.49-.53.49-.53l-.44.12-.61.29-.4.3-.21.3-.2.37-.08.7Z"/>
    <path class="cls-23" d="M10.88,28.12s.11-.5,1.3-.9,1.91-.19,2.08-.14.82.25.81.31-.47-.2-1.09-.27-.69-.19-1.6.08-1.36.83-1.36.83c0,0-.18.18-.14.08Z"/>
    <path class="cls-323" d="M10.69,29.24s.03-.71.19-1.04-.34.23-.34.87.14.17.14.17Z"/>
    <path class="cls-64" d="M11.23,28.63s.06-.09-.06-.23-.08-.08-.08-.08c0,0,.2.12.42.08s.21-.33.21-.33c0,0-.04.09.46-.15s.36-.28.36-.28c0,0,.15.03.6-.02s.84.21.84.21l-1.86.88-.89-.08Z"/>
    <path class="cls-101" d="M12.09,28.02s-.2.16-.3.13c0,0,.02.11-.14.22s-.38.03-.38.03c0,0,.18.21.02.22s-.11,0-.11,0c0,0,.04.19-.08.19h-.11s.2.06.03.2l-.17.15s.13.01,0,.16-.05.19-.34.28c0,0,0,.1.26,0s.34-.02.69-.31,1.45-1.25,1.45-1.25l.05-.25h-.23l-.63.23Z"/>
    <path class="cls-46" d="M12.72,27.86l-.68.17s.7-.39,1.17-.41,1,.05,1.14.06.33.2.33.2l-1.71.12-.25-.13Z"/>
    <path class="cls-293" d="M15.11,27.99s.22-.13.19-.21-.28,0-.44.03-.87-.15-1.35-.13-.91.27-.91.27l-.27.27.31.37.91-.54,1.25-.03.31-.02Z"/>
    <path class="cls-262" d="M11.96,28.38s.56-.4.64-.43-.15.09-.11.17.19.12.19.12l-.48.44-.42.17-.22-.04.22-.25.18-.19Z"/>
    <path class="cls-159" d="M11.31,29.24s-.16,0,0-.21.6-.68.65-.65-.22.26-.29.36.17,0,.17,0l-.05.44h-.31l-.17.06Z"/>
    <path class="cls-28" d="M11.53,29.32s-.07-.05-.16,0-.22.16-.1-.02.24-.39.25-.34.03.14.18.13-.16.22-.16.22Z"/>
    <path class="cls-238" d="M11.74,29.03s-.37.3-.16.3.85-.21,1.24-.43,1.22-.67,1.22-.67l-1.6.3-.7.5Z"/>
    <path class="cls-415" d="M12.44,28.92s-.02.09-.23.1-.19.08-.37.07-.37-.15.1-.47.5.29.5.29Z"/>
    <path class="cls-59" d="M12.66,28.8s-.11.15-.52.16-.32-.19-.15-.39.41-.4.55-.37.29.08.29.08l-.16.52Z"/>
    <path class="cls-285" d="M13.25,28.59s-.29.25-.47.26-.27-.34-.16-.51.68-.22.68-.22l.15.18-.03.15-.17.14Z"/>
    <path class="cls-283" d="M13.12,28.59s.11-.07.13-.14-.07-.09-.15-.04-.12.17.02.18Z"/>
    <path class="cls-188" d="M13.34,28.48s-.14-.1-.08-.28.51-.16.51-.16l-.03.19-.12.12-.28.14Z"/>
    <path class="cls-339" d="M14.56,27.91s.31.04.53-.03-.04.26-.27.28-.5-.02-.64.04-.55.23-.55.23c0,0-.58.29-.48.17s.36-.25.5-.3.63-.4.63-.4h.28Z"/>
    <path class="cls-192" d="M12.65,28.12s-.06.19.26.16.46-.03.62,0,.27.1.52-.04l.28-.26-.52-.1h-.47l-.68.24Z"/>
    <path class="cls-246" d="M12.87,28.12s.21,0,.21.08-.18.07-.26.08-.2-.15.05-.16Z"/>
    <path class="cls-75" d="M13.98,28.28s.17-.12.41-.12.37,0,.37,0c0,0-.08-.34-.59-.34s-.91-.02-1.18.09-.65.3.07.16.7-.14.81-.1.36.09.1.31Z"/>
    <path class="cls-197" d="M13.21,28.1s.25-.09.34-.05.11.14,0,.16-.25.06-.25.06l-.09-.18Z"/>
    <path class="cls-113" d="M10.95,23.34s-.21-1.47,2.04-1.51,3-.43,4.08-.73,1.96-.65,1.44-.11-.13,2-.13,2l-1.36,1.64-.2,2.62-1.1,2.49-1.36.99s.44-1.17.63-1.78.52-1.22.74-1.91-.16-1.79-.29-2.11.52-.91-.45-1.94-3.04-.31-4.03.35Z"/>
    <path class="cls-81" d="M17.97,21.9s-1.83.24-1.92,1.17.5,2.75.2,3.48,2.18,1.21,2.18,1.21l1.59-3.69-2.05-2.18Z"/>
    <path class="cls-345" d="M19.38,20.79s1.1-.4,1.73-.4,2.18.05,3.36,0,2.9-.01,3.43.35,1.1.99,1.1.99c0,0-.63-.27-1.91-.19s-4.1.58-4.1.58l-3.88.45.28-1.78Z"/>
    <path class="cls-125" d="M21.38,20.38c1.01,0,2.18.15,2.69.15s-.45.3.06.38,1.82.19,2.36,0,.41-.27.77-.21,1.54.84,1.73,1.03-.23.15-.85-.21-.48-.77-1.46-.41-2.33.68-3.24.24-.37-.5-1.35-.62-1.72-.35-.71-.35Z"/>
    <path class="cls-168" d="M18.37,24.52s-.77-1.67-.4-2.63,1.33-1.21,2.26-1.16,1.42-.18.14.83.04.4,1.17,0,2.52.71,2.52.71l-4.22,2.99-1.47-.74Z"/>
    <path class="cls-307" d="M24.61,33.79s-1.6-.53-3.78-.62-3.64.62-3.64.62l-1.04-2.53,4.23-1.24,2.06,1.43,2.17,2.34Z"/>
    <path class="cls-408" d="M21.66,29.54s1.57,1.43,2.66,2.34,1.65,1.35,1.64,1.7.5.93-1.13.4-3.16-2.12-3.56-2.9-1.75-1.78-1.75-1.78l2.15.25Z"/>
    <path class="cls-328" d="M14.09,33.69s.29.42.58.23.66-.13.87-.29.11-.67.11-.67l-1.03-1.17-.79.91.26.98Z"/>
    <path class="cls-328" d="M13.93,33.73s.23.07.21-.24-.08-.54.08-.78.4-.16.4-.16l1.11.75.61.15-1.25-2.65-.53.56-.73.96-.14.59.23.81Z"/>
    <path class="cls-186" d="M14.35,30.75s-.33.38-.37.83-.39.71-.35,1.21.29,1.19.29.85-.17-.83.21-1.21.42.11.54-.1.58-1.69.58-1.69l-.9.11Z"/>
    <path class="cls-412" d="M14.68,31.07s0,1.7,1.67,2.39,1.63-1.82,1.63-1.82l-1.05-1.42-2.25.85Z"/>
    <path class="cls-129" d="M16.48,31.26s-2.22.04-2.12-.52.96-1.17,1.2-2.09.64-2.55,1.75-3.6,5.35-2.68,7.33-2.92-.79,2.26-.79,2.26l-3.43,3.78-1.09,1.6,1.97.98-.18.78-.31.49-.86.17-2.19-.18-1.27-.75Z"/>
    <path class="cls-244" d="M20.88,31.22s.32.75-.64.72-1.89-.45-2.26-.72-1.33-.2-1.93.3-.36,1.75.58,2.07,1.9-1.17,1.9-1.17c0,0,2.12.04,2.5-.34s.23-1.01.23-1.01l-.38.15Z"/>
    <path class="cls-98" d="M18.52,32.71s-.75,1.06-1.34,1.08-1.33-.75-.4-1.38,1.74.3,1.74.3Z"/>
    <path class="cls-72" d="M14.63,32.56s-.53.44-.38.95.48.23.59.09.71.09.89-.29l-1.04-.23-.06-.52Z"/>
    <path class="cls-324" d="M14.63,32.56s-.33.57-.09.9.13-.05.41,0,.81.02.78-.15l-.73-.34-.38-.42Z"/>
    <path class="cls-206" d="M15.73,33.31l-1.11-.75s.18.53.35.64.38.29.75.11Z"/>
    <path class="cls-158" d="M19.85,32.19s.29.05.17.14-.85.19-.85.19c0,0-.22.11-.64.19s-.7.07-.88,0-.27.15-.66.06-.42-.25-.2-.36,1.56-.33,1.56-.33l1.5.1Z"/>
    <path class="cls-361" d="M16.7,32.53s.03.18.4,0,.82-.07,1.13.08.9.13,1.07,0,.55-.42.55-.42c0,0-.73-.28-1.34-.24s-1.14.24-1.14.24l-.37.11-.22.11-.08.12Z"/>
    <path class="cls-34" d="M21.11,31.53s.14.63-.48.95.26.32.61,0,.5-.35.6-.78-.72-.17-.72-.17Z"/>
    <path class="cls-343" d="M20.86,29.89s1.06.43,1.07,1.22-.38,1.06-.82.42-.75-.93-1.8-.99-1.89-.03-2.19-.25-.95-.53-1.41-.53.09-1.47,1.26-1.16,2.12.94,2.12.94l1.76.35Z"/>
    <polygon class="cls-129" points="18.79 25.75 19.53 24.81 22.36 24.91 25.49 28.3 23.38 29.54 19.48 28 18.37 26.66 18.79 25.75"/>
    <path class="cls-315" d="M19.1,25.31s-.27,1.05.38,1.75,4.44,2.01,4.44,2.01l1.44,1.1s.34.69-1.44.17-3.3-1.14-3.02-.66-1.1,0-1.65.35-2.16.53-2.43.03,1.02-1.13,1.66-1.24.69-.94-.11-1.56-.55-1.74.73-1.96Z"/>
    <path class="cls-224" d="M24.83,27.26s2.16-.8,3.31.74,1.29,3.69.29,3.51-3.79-1.24-4.79-1.9,1.18-1.95,1.19-2.36Z"/>
    <path class="cls-212" d="M23.09,22.79s-2,.49-2.55,1-1.55,1.09-1.43,1.52.67-.18.67.23-.08.85.59,1.1,2.58-1.73,2.58-1.73l.14-2.12Z"/>
    <path class="cls-16" d="M21.02,24.41s-.83.78-.78,1.77,1.6,1.82,2.64,1.82,2.83-.21,3.18-.35.82-.29,1.14-.26.73-.38.06-.63-3.14-.43-3.14-.43l-1.76-1.43-1.34-.49Z"/>
    <path class="cls-312" d="M21.46,27.09s1.51.47,2.24.58,1.22.05,1.89-.15,1.61-.37,1.67-.62.37-1.03-1.77-.55-4.38-.63-4.38-.63l.08.69.27.69Z"/>
    <path class="cls-304" d="M21.62,26.49s1.14.63,2.08.62,1.05-.3,1.86-.54.81-.93,0-1.2-2.85.01-2.85.01l-1.09.66-.24.18.24.27Z"/>
    <path class="cls-397" d="M22.23,23.34s-.74.04-1.32,1.3-.44,1.87.14,2.26,1.05.2.69-.18.19-.5.49-.74,1.41-1.11,1.41-1.11l-.31-1.35-1.1-.17Z"/>
    <path class="cls-106" d="M29.54,24.04s.05-1.12-1.32-1.58-3.42-.63-4.56,0-2.09,1.34-1.67,1.58,4.26,0,4.26,0l2.81.61.48-.6Z"/>
    <path class="cls-205" d="M28.1,26.23s1.02.34,1.26.07-.12-2.07-.12-2.07l-2.03-.72-.84.98-.19.7,1.59.52.33.52Z"/>
    <path class="cls-390" d="M23.71,27.66s.84.08,1.58-.13,1.42-.3,1.79-.26-.13,0-.83.2-1.81.44-2.55.19Z"/>
    <path class="cls-117" d="M22.23,26.1s1.02.29,1.89.23,1.44-.4,1.83-.47,1.14-.16,1.48.11,1.26.41,1.32.09-.67-.64-.67-.64l-3.98-.03-1.01-.19-.86.88Z"/>
    <path class="cls-4" d="M25.81,23.84s-1.81-1.05-.95-1.26,2.45-.14,3.46.25,1.82,2.06,1.51,2.75-.69.96-.71.69.26-1.05-.59-1.62-2.72-.62-2.72-.62v-.19Z"/>
    <path class="cls-97" d="M25.81,23.84s1.14.21,1.47.33.1.22.38.34.93.43.74.41-.61-.31-.88-.27-1.93-.56-1.93-.56l-.39-.07v-.14l.62-.03Z"/>
    <path class="cls-145" d="M22.28,24.56s1.08-.59,1.92-.71,1.42-.03,1.71,0-1,.05-1.48.19-2.1.76-2.1.76l-.05-.25Z"/>
    <path class="cls-204" d="M21.23,25.67s.59-.84,1.04-1.12,1.36-.39,1.36-.39l-1.32.58-.35.31s-.8.85-.73.62Z"/>
    <path class="cls-163" d="M22.71,25.38s-.93-.21-.69-.44.62-.54,1.3-.72,1.05-.31,1.55-.31.98.03,1.37.13,1.13.49,1.27.61.32.45-.28.57-2.41-.3-2.41-.3l-1.3.25-.81.22Z"/>
    <path class="cls-303" d="M25.81,25.63s.29-.1.73-.04,1.13.1,1.35.04.43-.16,0-.25-1.74-.12-1.74-.12l-.34.37Z"/>
    <path class="cls-194" d="M22.71,25.38s.7-.43.92-.52.2-.47.2-.47c0,0-.05.39.12.38s.07-.14.24-.12.23.14.32.02.17-.28.17-.28c0,0-.07.34,0,.34s.31-.4.31-.4c0,0-.14.32-.04.33s.17-.3.17-.3c0,0-.02.24.03.23s.11-.12.11-.12c0,0-.04.22.03.22s.13.05.18.04.13-.02.17,0,.09,0,.17-.1-.02.03.03.15.26-.26.26-.26c0,0-.08.29-.03.32s.22-.14.22-.14c0,0-.13.22-.02.25s.37-.06.37-.06c0,0-.09.07-.06.15s.21-.03.21-.03c0,0,.25.17.44.18s.81.07.66.17-1.72-.19-1.72-.19l-1.71-.09-1.29.4-.46-.11Z"/>
    <path class="cls-223" d="M21.38,26.23s-.21.08,0,.11.67-.05.96-.32.55-.53.98-.7-.41-.07-.71.13-.43.44-.66.59-.2.17-.57.2Z"/>
    <path class="cls-346" d="M24.93,24.94s.56.02,1.01.12,1,.17,1.33.21.62.12.62.12c0,0-.01.13-.37.11s-.97-.16-1.45-.03-1.47-.28-1.47-.28l.32-.25Z"/>
    <path class="cls-19" d="M25.91,25.26s.26.03.32.04-.08.13-.28.23-.25.23-.81.44-1.54.26-1.65.18.19-.11.15-.18-.29.04-.65.04-.42-.18-.35-.29.67-.61,1.28-.67,1.99.2,1.99.2Z"/>
    <path class="cls-209" d="M25.71,25.31s0-.13.08-.12.11.07.11.12,0,.1-.11.13-.08-.13-.08-.13Z"/>
    <path class="cls-96" d="M24.83,25.75s.29-.16.52-.16.49-.06.55-.17-.08.1-.17-.03-.16-.26-.16-.26c0,0-.08.15-.15.14s0-.11-.05-.1-.34.34-.34.34l-.2.25Z"/>
    <path class="cls-255" d="M24.58,25.75s.12.07.25,0,.27-.26.3-.41.22-.28.14-.34-.44-.09-.44-.09l-.36.19.11.65Z"/>
    <path class="cls-63" d="M23.76,25.87s.22.07.47,0,.35-.12.35-.12l.03-.48-.92.41.07.2Z"/>
    <path class="cls-26" d="M24.56,25.58s.12-.08.11-.3,0-.18.08-.18.17-.15.05-.16-.53.07-.53.07l-.2.11.03.29.29.09.18.08Z"/>
    <path class="cls-232" d="M23.09,25.54s.35-.25.73-.3.37.01.37.01l-.06.22-.42.07h-.62Z"/>
    <path class="cls-138" d="M23.76,25.87s-.61.16-.91.09.07-.33.24-.42.5-.2.71-.16.22.2.22.2l-.26.29Z"/>
    <path class="cls-327" d="M24.26,25.31s.13-.11.14-.15-.41-.04-.41-.04l.14.19h.14Z"/>
    <path class="cls-372" d="M24.05,25.37s.05-.04.02-.1-.33,0-.35-.04-.03-.08.2-.16.65-.18.9-.15-.03,0-.16.06-.31.14-.5.16-.03.09.02.11.1.05.06.13-.2,0-.2,0Z"/>
    <path class="cls-154" d="M23.89,25.41s-.14-.03-.2.06,0,.42.07.41.46-.2.46-.2l.09-.12s.2.07.25.02-.03-.21-.32-.2-.33.14-.33.14l-.03-.11Z"/>
    <path class="cls-213" d="M23.89,25.41s-.07.41.07.39.43-.19.43-.29-.2-.19-.49-.09Z"/>
    <path class="cls-367" d="M24.35,25.21s.01-.07.15-.07.13.03.1.12-.2.09-.23.02l-.03-.07Z"/>
    <path class="cls-231" d="M24.83,25.34s-.03-.19.12-.18.13.13.11.2-.05.14-.14.13-.1-.16-.1-.16Z"/>
    <path class="cls-390" d="M27.42,26.79s.36-.13.47-.06-.03.12-.23.16-.23-.1-.23-.1Z"/>
    <path class="cls-368" d="M16.79,32.41s.1-.09.32-.2c.23-.11.6-.23,1.12-.27,1.02-.06,1.1.37.74.46,0,0-1.13.07-1.5-.06s-.69.06-.69.06Z"/>
    <path class="cls-197" d="M13.79,28.12s.07.19.18.15.06-.14-.03-.15-.16,0-.16,0Z"/>
    <path class="cls-299" d="M13.63,28.35s-.04-.3.06-.31.11-.02.11.09,0,.22,0,.22l-.17.06v-.06Z"/>
    <path class="cls-260" d="M12.2,28.68s.32-.19.37-.07-.06.27-.21.24-.21-.09-.15-.17Z"/>
    <path class="cls-291" d="M26.3,34.13s.98.84.85,1.82-.07.94.08.27.01-1.55-.93-2.09Z"/>
    <path class="cls-25" d="M22.09,8.49s-.06-.67,1.25-1.53c0,0-.65.65-.62.97l-.62.56Z"/>
    <path class="cls-291" d="M11.73,37.56l1.25-2.69s-.65,1.48-.72,2.09c-.07.58-.44,1.52-.44,1.52l-.09-.91Z"/>
    <path class="cls-291" d="M21.59,33.52s.22.57.07.83-.49.43-.49.43c0,0,.34-.01.36.19,0,0,.35-.47.34-.89s-.05-.51-.05-.51l-.05.27-.19-.33Z"/>
    <path class="cls-273" d="M44.56,27.1l.42,2.07s.1-1.73-.21-2.2-.21.13-.21.13Z"/>
    <path class="cls-365" d="M15.2,38.7s-.06-.12.09-.08.17.21.31.15.2.16-.07.11-.33-.18-.33-.18Z"/>
  </g>
</svg>